solid OpenSCAD_Model
  facet normal -1 0 0
    outer loop
      vertex -5 90 0
      vertex -5 90 5
      vertex -5 100 0
    endloop
  endfacet
  facet normal -1 0 0
    outer loop
      vertex -5 100 0
      vertex -5 90 5
      vertex -5 100 5
    endloop
  endfacet
  facet normal 0 -1 0
    outer loop
      vertex -5 90 5
      vertex -5 90 0
      vertex 0 90 0
    endloop
  endfacet
  facet normal 0 -1 0
    outer loop
      vertex 0 90 5
      vertex -5 90 5
      vertex 0 90 0
    endloop
  endfacet
  facet normal 0 0 -1
    outer loop
      vertex -5 90 0
      vertex -5 100 0
      vertex 0 90 0
    endloop
  endfacet
  facet normal 0 0 -1
    outer loop
      vertex 0 90 0
      vertex -5 100 0
      vertex 15 100 0
    endloop
  endfacet
  facet normal 0 0 -1
    outer loop
      vertex 10 90 0
      vertex 15 100 0
      vertex 15 90 0
    endloop
  endfacet
  facet normal 0 0 -1
    outer loop
      vertex 0 90 0
      vertex 15 100 0
      vertex 10 90 0
    endloop
  endfacet
  facet normal 0 0 -1
    outer loop
      vertex 90 0 0
      vertex 100 -5 0
      vertex 90 -5 0
    endloop
  endfacet
  facet normal 0 0 -1
    outer loop
      vertex 10 90 0
      vertex 10 10 0
      vertex 0 90 0
    endloop
  endfacet
  facet normal 0 0 -1
    outer loop
      vertex 90 10 0
      vertex 90 15 0
      vertex 100 15 0
    endloop
  endfacet
  facet normal 0 0 -1
    outer loop
      vertex 90 10 0
      vertex 100 15 0
      vertex 100 -5 0
    endloop
  endfacet
  facet normal 0 0 -1
    outer loop
      vertex 0 0 0
      vertex 10 10 0
      vertex 90 0 0
    endloop
  endfacet
  facet normal 0 0 -1
    outer loop
      vertex 90 10 0
      vertex 100 -5 0
      vertex 90 0 0
    endloop
  endfacet
  facet normal 0 0 -1
    outer loop
      vertex 90 10 0
      vertex 90 0 0
      vertex 10 10 0
    endloop
  endfacet
  facet normal 0 0 -1
    outer loop
      vertex 0 90 0
      vertex 10 10 0
      vertex 0 0 0
    endloop
  endfacet
  facet normal 0 1 0
    outer loop
      vertex -5 100 0
      vertex -5 100 5
      vertex 15 100 0
    endloop
  endfacet
  facet normal 0 1 0
    outer loop
      vertex 15 100 0
      vertex -5 100 5
      vertex 15 100 5
    endloop
  endfacet
  facet normal 0 0 1
    outer loop
      vertex -5 100 5
      vertex -5 90 5
      vertex 0 90 5
    endloop
  endfacet
  facet normal 0 0 1
    outer loop
      vertex 10 90 5
      vertex -5 100 5
      vertex 0 90 5
    endloop
  endfacet
  facet normal 0 0 1
    outer loop
      vertex 0 10 5
      vertex 10 10 5
      vertex 0 90 5
    endloop
  endfacet
  facet normal 0 0 1
    outer loop
      vertex 10 10 5
      vertex 10 90 5
      vertex 0 90 5
    endloop
  endfacet
  facet normal 0 0 1
    outer loop
      vertex 10 90 5
      vertex 15 90 5
      vertex -5 100 5
    endloop
  endfacet
  facet normal 0 0 1
    outer loop
      vertex 15 90 5
      vertex 15 100 5
      vertex -5 100 5
    endloop
  endfacet
  facet normal -1 0 0
    outer loop
      vertex 0 90 5
      vertex 0 90 0
      vertex 0 10 5
    endloop
  endfacet
  facet normal -1 0 0
    outer loop
      vertex 0 0 0
      vertex 0 0 50
      vertex 0 10 5
    endloop
  endfacet
  facet normal -1 0 0
    outer loop
      vertex 0 0 0
      vertex 0 10 5
      vertex 0 90 0
    endloop
  endfacet
  facet normal -1 0 0
    outer loop
      vertex 0 10 5
      vertex 0 0 50
      vertex 0 10 50
    endloop
  endfacet
  facet normal 0 -1 0
    outer loop
      vertex 10 0 5
      vertex 0 0 0
      vertex 90 0 0
    endloop
  endfacet
  facet normal 0 -1 0
    outer loop
      vertex 10 0 5
      vertex 10 0 50
      vertex 0 0 50
    endloop
  endfacet
  facet normal 0 -1 0
    outer loop
      vertex 0 0 50
      vertex 0 0 0
      vertex 10 0 5
    endloop
  endfacet
  facet normal 0 -1 0
    outer loop
      vertex 90 0 5
      vertex 10 0 5
      vertex 90 0 0
    endloop
  endfacet
  facet normal -1 0 0
    outer loop
      vertex 90 -5 0
      vertex 90 -5 5
      vertex 90 0 0
    endloop
  endfacet
  facet normal -1 0 0
    outer loop
      vertex 90 0 0
      vertex 90 -5 5
      vertex 90 0 5
    endloop
  endfacet
  facet normal 0 -1 0
    outer loop
      vertex 90 -5 5
      vertex 90 -5 0
      vertex 100 -5 0
    endloop
  endfacet
  facet normal 0 -1 0
    outer loop
      vertex 100 -5 5
      vertex 90 -5 5
      vertex 100 -5 0
    endloop
  endfacet
  facet normal 1 0 0
    outer loop
      vertex 100 -5 5
      vertex 100 -5 0
      vertex 100 15 0
    endloop
  endfacet
  facet normal 1 0 0
    outer loop
      vertex 100 15 5
      vertex 100 -5 5
      vertex 100 15 0
    endloop
  endfacet
  facet normal 0 1 0
    outer loop
      vertex 90 15 0
      vertex 90 15 5
      vertex 100 15 0
    endloop
  endfacet
  facet normal 0 1 0
    outer loop
      vertex 100 15 0
      vertex 90 15 5
      vertex 100 15 5
    endloop
  endfacet
  facet normal -1 0 0
    outer loop
      vertex 90 10 0
      vertex 90 10 5
      vertex 90 15 0
    endloop
  endfacet
  facet normal -1 0 0
    outer loop
      vertex 90 15 0
      vertex 90 10 5
      vertex 90 15 5
    endloop
  endfacet
  facet normal 0 1 0
    outer loop
      vertex 10 10 0
      vertex 10 10 5
      vertex 90 10 0
    endloop
  endfacet
  facet normal 0 1 0
    outer loop
      vertex 90 10 0
      vertex 10 10 5
      vertex 90 10 5
    endloop
  endfacet
  facet normal 1 0 0
    outer loop
      vertex 10 10 5
      vertex 10 10 0
      vertex 10 90 0
    endloop
  endfacet
  facet normal 1 0 0
    outer loop
      vertex 10 90 5
      vertex 10 10 5
      vertex 10 90 0
    endloop
  endfacet
  facet normal 0 -1 0
    outer loop
      vertex 10 90 5
      vertex 10 90 0
      vertex 15 90 0
    endloop
  endfacet
  facet normal 0 -1 0
    outer loop
      vertex 15 90 5
      vertex 10 90 5
      vertex 15 90 0
    endloop
  endfacet
  facet normal 1 0 0
    outer loop
      vertex 15 90 5
      vertex 15 90 0
      vertex 15 100 0
    endloop
  endfacet
  facet normal 1 0 0
    outer loop
      vertex 15 100 5
      vertex 15 90 5
      vertex 15 100 0
    endloop
  endfacet
  facet normal 1 0 0
    outer loop
      vertex 10 0 50
      vertex 10 0 5
      vertex 10 10 5
    endloop
  endfacet
  facet normal 1 0 0
    outer loop
      vertex 10 10 50
      vertex 10 0 50
      vertex 10 10 5
    endloop
  endfacet
  facet normal 0 1 0
    outer loop
      vertex 0 10 5
      vertex 0 10 50
      vertex 10 10 5
    endloop
  endfacet
  facet normal 0 1 0
    outer loop
      vertex 10 10 5
      vertex 0 10 50
      vertex 10 10 50
    endloop
  endfacet
  facet normal 0 0 1
    outer loop
      vertex 10 10 5
      vertex 10 0 5
      vertex 90 0 5
    endloop
  endfacet
  facet normal 0 0 1
    outer loop
      vertex 90 10 5
      vertex 10 10 5
      vertex 90 0 5
    endloop
  endfacet
  facet normal 0 0 1
    outer loop
      vertex 90 -5 5
      vertex 100 -5 5
      vertex 90 0 5
    endloop
  endfacet
  facet normal 0 0 1
    outer loop
      vertex 100 -5 5
      vertex 100 15 5
      vertex 90 0 5
    endloop
  endfacet
  facet normal 0 0 1
    outer loop
      vertex 100 15 5
      vertex 90 10 5
      vertex 90 0 5
    endloop
  endfacet
  facet normal 0 0 1
    outer loop
      vertex 90 15 5
      vertex 90 10 5
      vertex 100 15 5
    endloop
  endfacet
  facet normal 0 0 1
    outer loop
      vertex 0 10 50
      vertex 0 0 50
      vertex 10 0 50
    endloop
  endfacet
  facet normal 0 0 1
    outer loop
      vertex 10 10 50
      vertex 0 10 50
      vertex 10 0 50
    endloop
  endfacet
endsolid OpenSCAD_Model
