solid platform
facet normal -1.0 0.0 0.0
  outer loop
    vertex 0.0 50.0 2.5
    vertex 0.0 0.0 0.0
    vertex 0.0 0.0 2.5
  endloop
endfacet
facet normal -1.0 0.0 0.0
  outer loop
    vertex 0.0 0.0 0.0
    vertex 0.0 50.0 2.5
    vertex 0.0 50.0 0.0
  endloop
endfacet
facet normal -0.0 1.0 0.0
  outer loop
    vertex 0.0 50.0 2.5
    vertex 70.0 50.0 0.0
    vertex 0.0 50.0 0.0
  endloop
endfacet
facet normal -0.0 1.0 0.0
  outer loop
    vertex 70.0 50.0 0.0
    vertex 0.0 50.0 2.5
    vertex 70.0 50.0 2.5
  endloop
endfacet
facet normal 1.0 0.0 0.0
  outer loop
    vertex 70.0 50.0 0.0
    vertex 70.0 0.0 2.5
    vertex 70.0 0.0 0.0
  endloop
endfacet
facet normal 1.0 0.0 0.0
  outer loop
    vertex 70.0 0.0 2.5
    vertex 70.0 50.0 0.0
    vertex 70.0 50.0 2.5
  endloop
endfacet
facet normal -0.0 -1.0 -0.0
  outer loop
    vertex 70.0 0.0 2.5
    vertex 0.0 0.0 0.0
    vertex 70.0 0.0 0.0
  endloop
endfacet
facet normal -0.0 -1.0 -0.0
  outer loop
    vertex 0.0 0.0 0.0
    vertex 70.0 0.0 2.5
    vertex 0.0 0.0 2.5
  endloop
endfacet
facet normal -0.0 -0.0 1.0
  outer loop
    vertex 0.0 0.0 2.5
    vertex 21.643844699385312 23.143844699385312 2.5
    vertex 0.0 50.0 2.5
  endloop
endfacet
facet normal -0.0 -0.0 1.0
  outer loop
    vertex 21.643844699385312 23.143844699385312 2.5
    vertex 0.0 0.0 2.5
    vertex 22.1875 22.72668331506585 2.5
  endloop
endfacet
facet normal -0.0 -0.0 1.0
  outer loop
    vertex 22.1875 22.72668331506585 2.5
    vertex 0.0 0.0 2.5
    vertex 70.0 0.0 2.5
  endloop
endfacet
facet normal -0.0 -0.0 1.0
  outer loop
    vertex 0.0 50.0 2.5
    vertex 21.643844699385312 23.143844699385312 2.5
    vertex 21.22668331506585 23.6875 2.5
  endloop
endfacet
facet normal -0.0 -0.0 1.0
  outer loop
    vertex 0.0 50.0 2.5
    vertex 21.22668331506585 23.6875 2.5
    vertex 20.964444705991195 24.320600006605883 2.5
  endloop
endfacet
facet normal -0.0 -0.0 1.0
  outer loop
    vertex 0.0 50.0 2.5
    vertex 20.964444705991195 24.320600006605883 2.5
    vertex 20.875 25.0 2.5
  endloop
endfacet
facet normal -0.0 -0.0 1.0
  outer loop
    vertex 22.1875 22.72668331506585 2.5
    vertex 70.0 0.0 2.5
    vertex 22.820600006605883 22.464444705991195 2.5
  endloop
endfacet
facet normal -0.0 -0.0 1.0
  outer loop
    vertex 22.820600006605883 22.464444705991195 2.5
    vertex 70.0 0.0 2.5
    vertex 23.5 22.375 2.5
  endloop
endfacet
facet normal -0.0 -0.0 1.0
  outer loop
    vertex 23.5 22.375 2.5
    vertex 70.0 0.0 2.5
    vertex 24.179399993394117 22.464444705991195 2.5
  endloop
endfacet
facet normal -0.0 -0.0 1.0
  outer loop
    vertex 24.179399993394117 22.464444705991195 2.5
    vertex 70.0 0.0 2.5
    vertex 24.8125 22.72668331506585 2.5
  endloop
endfacet
facet normal -0.0 -0.0 1.0
  outer loop
    vertex 24.8125 22.72668331506585 2.5
    vertex 70.0 0.0 2.5
    vertex 25.356155300614684 23.143844699385312 2.5
  endloop
endfacet
facet normal -0.0 -0.0 1.0
  outer loop
    vertex 25.356155300614684 23.143844699385312 2.5
    vertex 70.0 0.0 2.5
    vertex 25.77331668493415 23.6875 2.5
  endloop
endfacet
facet normal -0.0 -0.0 1.0
  outer loop
    vertex 25.77331668493415 23.6875 2.5
    vertex 70.0 0.0 2.5
    vertex 26.035555294008805 24.320600006605883 2.5
  endloop
endfacet
facet normal -0.0 -0.0 1.0
  outer loop
    vertex 26.035555294008805 24.320600006605883 2.5
    vertex 70.0 0.0 2.5
    vertex 26.124999999999996 25.0 2.5
  endloop
endfacet
facet normal -0.0 -0.0 1.0
  outer loop
    vertex 26.124999999999996 25.0 2.5
    vertex 70.0 0.0 2.5
    vertex 44.91881073246973 22.904656233395794 2.4999999999999956
  endloop
endfacet
facet normal -0.0 -0.0 1.0
  outer loop
    vertex 26.124999999999996 25.0 2.5
    vertex 44.91881073246973 22.904656233395794 2.4999999999999956
    vertex 44.430373577407394 23.385295237231727 2.4999999999999956
  endloop
endfacet
facet normal -0.0 -0.0 1.0
  outer loop
    vertex 26.124999999999996 25.0 2.5
    vertex 44.430373577407394 23.385295237231727 2.4999999999999956
    vertex 44.082978042825374 23.975973702224522 2.4999999999999956
  endloop
endfacet
facet normal -0.0 -0.0 1.0
  outer loop
    vertex 26.124999999999996 25.0 2.5
    vertex 44.082978042825374 23.975973702224522 2.4999999999999956
    vertex 43.900298560307164 24.636437867127245 2.4999999999999956
  endloop
endfacet
facet normal -0.0 -0.0 1.0
  outer loop
    vertex 26.124999999999996 25.0 2.5
    vertex 43.900298560307164 24.636437867127245 2.4999999999999956
    vertex 43.89478443469425 25.32167819057042 2.4999999999999956
  endloop
endfacet
facet normal -0.0 -0.0 1.0
  outer loop
    vertex 44.91881073246973 22.904656233395794 2.4999999999999956
    vertex 70.0 0.0 2.5
    vertex 45.51500332307543 22.566811444534647 2.4999999999999956
  endloop
endfacet
facet normal -0.0 -0.0 1.0
  outer loop
    vertex 45.51500332307543 22.566811444534647 2.4999999999999956
    vertex 70.0 0.0 2.5
    vertex 46.178321809429576 22.39478443469425 2.4999999999999956
  endloop
endfacet
facet normal -0.0 -0.0 1.0
  outer loop
    vertex 46.178321809429576 22.39478443469425 2.4999999999999956
    vertex 70.0 0.0 2.5
    vertex 46.86356213287275 22.40029856030716 2.4999999999999956
  endloop
endfacet
facet normal -0.0 -0.0 1.0
  outer loop
    vertex 46.86356213287275 22.40029856030716 2.4999999999999956
    vertex 70.0 0.0 2.5
    vertex 47.52402629777548 22.582978042825374 2.4999999999999956
  endloop
endfacet
facet normal -0.0 -0.0 1.0
  outer loop
    vertex 47.52402629777548 22.582978042825374 2.4999999999999956
    vertex 70.0 0.0 2.5
    vertex 48.11470476276827 22.930373577407398 2.4999999999999956
  endloop
endfacet
facet normal -0.0 -0.0 1.0
  outer loop
    vertex 48.11470476276827 22.930373577407398 2.4999999999999956
    vertex 70.0 0.0 2.5
    vertex 48.5953437666042 23.41881073246973 2.4999999999999956
  endloop
endfacet
facet normal -0.0 -0.0 1.0
  outer loop
    vertex 48.5953437666042 23.41881073246973 2.4999999999999956
    vertex 70.0 0.0 2.5
    vertex 48.93318855546535 24.015003323075437 2.4999999999999956
  endloop
endfacet
facet normal -0.0 -0.0 1.0
  outer loop
    vertex 48.93318855546535 24.015003323075437 2.4999999999999956
    vertex 70.0 0.0 2.5
    vertex 49.10521556530575 24.678321809429576 2.4999999999999956
  endloop
endfacet
facet normal -0.0 -0.0 1.0
  outer loop
    vertex 0.0 50.0 2.5
    vertex 22.1875 27.273316684934148 2.5
    vertex 70.0 50.0 2.5
  endloop
endfacet
facet normal -0.0 -0.0 1.0
  outer loop
    vertex 22.1875 27.273316684934148 2.5
    vertex 0.0 50.0 2.5
    vertex 21.64384469938531 26.856155300614684 2.5
  endloop
endfacet
facet normal -0.0 -0.0 1.0
  outer loop
    vertex 21.64384469938531 26.856155300614684 2.5
    vertex 0.0 50.0 2.5
    vertex 21.22668331506585 26.3125 2.5
  endloop
endfacet
facet normal -0.0 -0.0 1.0
  outer loop
    vertex 21.22668331506585 26.3125 2.5
    vertex 0.0 50.0 2.5
    vertex 20.964444705991195 25.679399993394117 2.5
  endloop
endfacet
facet normal -0.0 -0.0 1.0
  outer loop
    vertex 20.964444705991195 25.679399993394117 2.5
    vertex 0.0 50.0 2.5
    vertex 20.875 25.0 2.5
  endloop
endfacet
facet normal -0.0 -0.0 1.0
  outer loop
    vertex 70.0 50.0 2.5
    vertex 22.1875 27.273316684934148 2.5
    vertex 22.820600006605883 27.535555294008805 2.5
  endloop
endfacet
facet normal -0.0 -0.0 1.0
  outer loop
    vertex 70.0 50.0 2.5
    vertex 22.820600006605883 27.535555294008805 2.5
    vertex 23.5 27.625 2.5
  endloop
endfacet
facet normal -0.0 -0.0 1.0
  outer loop
    vertex 70.0 50.0 2.5
    vertex 23.5 27.625 2.5
    vertex 24.179399993394117 27.535555294008805 2.5
  endloop
endfacet
facet normal -0.0 -0.0 1.0
  outer loop
    vertex 70.0 50.0 2.5
    vertex 24.179399993394117 27.535555294008805 2.5
    vertex 24.8125 27.273316684934148 2.5
  endloop
endfacet
facet normal -0.0 -0.0 1.0
  outer loop
    vertex 70.0 50.0 2.5
    vertex 24.8125 27.273316684934148 2.5
    vertex 25.356155300614684 26.856155300614684 2.5
  endloop
endfacet
facet normal -0.0 -0.0 1.0
  outer loop
    vertex 70.0 50.0 2.5
    vertex 25.356155300614684 26.856155300614684 2.5
    vertex 25.77331668493415 26.3125 2.5
  endloop
endfacet
facet normal -0.0 -0.0 1.0
  outer loop
    vertex 70.0 50.0 2.5
    vertex 25.77331668493415 26.3125 2.5
    vertex 26.035555294008805 25.679399993394117 2.5
  endloop
endfacet
facet normal -0.0 -0.0 1.0
  outer loop
    vertex 70.0 50.0 2.5
    vertex 26.035555294008805 25.679399993394117 2.5
    vertex 26.124999999999996 25.0 2.5
  endloop
endfacet
facet normal -0.0 -0.0 1.0
  outer loop
    vertex 70.0 50.0 2.5
    vertex 26.124999999999996 25.0 2.5
    vertex 44.88529523723172 27.069626422592602 2.4999999999999956
  endloop
endfacet
facet normal -0.0 -0.0 1.0
  outer loop
    vertex 44.88529523723172 27.069626422592602 2.4999999999999956
    vertex 26.124999999999996 25.0 2.5
    vertex 44.4046562333958 26.58118926753027 2.4999999999999956
  endloop
endfacet
facet normal -0.0 -0.0 1.0
  outer loop
    vertex 44.4046562333958 26.58118926753027 2.4999999999999956
    vertex 26.124999999999996 25.0 2.5
    vertex 44.06681144453465 25.984996676924563 2.4999999999999956
  endloop
endfacet
facet normal -0.0 -0.0 1.0
  outer loop
    vertex 44.06681144453465 25.984996676924563 2.4999999999999956
    vertex 26.124999999999996 25.0 2.5
    vertex 43.89478443469425 25.32167819057042 2.4999999999999956
  endloop
endfacet
facet normal -0.0 -0.0 1.0
  outer loop
    vertex 70.0 50.0 2.5
    vertex 44.88529523723172 27.069626422592602 2.4999999999999956
    vertex 45.47597370222452 27.417021957174626 2.4999999999999956
  endloop
endfacet
facet normal -0.0 -0.0 1.0
  outer loop
    vertex 70.0 50.0 2.5
    vertex 45.47597370222452 27.417021957174626 2.4999999999999956
    vertex 46.13643786712725 27.599701439692836 2.4999999999999956
  endloop
endfacet
facet normal -0.0 -0.0 1.0
  outer loop
    vertex 70.0 50.0 2.5
    vertex 46.13643786712725 27.599701439692836 2.4999999999999956
    vertex 46.821678190570424 27.605215565305745 2.4999999999999956
  endloop
endfacet
facet normal -0.0 -0.0 1.0
  outer loop
    vertex 70.0 50.0 2.5
    vertex 46.821678190570424 27.605215565305745 2.4999999999999956
    vertex 47.48499667692456 27.43318855546535 2.4999999999999956
  endloop
endfacet
facet normal -0.0 -0.0 1.0
  outer loop
    vertex 70.0 50.0 2.5
    vertex 47.48499667692456 27.43318855546535 2.4999999999999956
    vertex 48.08118926753027 27.095343766604202 2.4999999999999956
  endloop
endfacet
facet normal -0.0 -0.0 1.0
  outer loop
    vertex 70.0 50.0 2.5
    vertex 48.08118926753027 27.095343766604202 2.4999999999999956
    vertex 48.5696264225926 26.614704762768273 2.4999999999999956
  endloop
endfacet
facet normal -0.0 -0.0 1.0
  outer loop
    vertex 70.0 50.0 2.5
    vertex 48.5696264225926 26.614704762768273 2.4999999999999956
    vertex 48.917021957174626 26.024026297775475 2.4999999999999956
  endloop
endfacet
facet normal -0.0 -0.0 1.0
  outer loop
    vertex 70.0 50.0 2.5
    vertex 48.917021957174626 26.024026297775475 2.4999999999999956
    vertex 49.09970143969284 25.363562132872747 2.4999999999999956
  endloop
endfacet
facet normal -0.0 -0.0 1.0
  outer loop
    vertex 70.0 50.0 2.5
    vertex 49.09970143969284 25.363562132872747 2.4999999999999956
    vertex 49.10521556530575 24.678321809429576 2.4999999999999956
  endloop
endfacet
facet normal -0.0 -0.0 1.0
  outer loop
    vertex 70.0 50.0 2.5
    vertex 49.10521556530575 24.678321809429576 2.4999999999999956
    vertex 70.0 0.0 2.5
  endloop
endfacet
facet normal 0.34286711158512634 0.8277544308805049 0.44414496051510505
  outer loop
    vertex 22.1875 22.72668331506585 2.5
    vertex 23.14412381298403 23.67185198885253 0.0
    vertex 22.8125 23.809215069796394 0.0
  endloop
endfacet
facet normal 0.34286711158512634 0.8277544308805049 0.44414496051510505
  outer loop
    vertex 23.14412381298403 23.67185198885253 0.0
    vertex 22.1875 22.72668331506585 2.5
    vertex 22.820600006605883 22.464444705991195 2.5
  endloop
endfacet
facet normal 0.5454228094450837 0.7108088441951657 0.44414496051510577
  outer loop
    vertex 21.643844699385312 23.143844699385312 2.5
    vertex 22.8125 23.809215069796394 0.0
    vertex 22.527728175868496 24.027728175868496 0.0
  endloop
endfacet
facet normal 0.5454228094450837 0.7108088441951657 0.44414496051510577
  outer loop
    vertex 22.8125 23.809215069796394 0.0
    vertex 21.643844699385312 23.143844699385312 2.5
    vertex 22.1875 22.72668331506585 2.5
  endloop
endfacet
facet normal 0.7108088441951653 0.5454228094450844 0.4441449605151054
  outer loop
    vertex 22.527728175868496 24.027728175868496 0.0
    vertex 21.22668331506585 23.6875 2.5
    vertex 21.643844699385312 23.143844699385312 2.5
  endloop
endfacet
facet normal 0.7108088441951653 0.5454228094450844 0.4441449605151054
  outer loop
    vertex 21.22668331506585 23.6875 2.5
    vertex 22.527728175868496 24.027728175868496 0.0
    vertex 22.309215069796394 24.312499999999996 0.0
  endloop
endfacet
facet normal 0.8277544308805045 0.34286711158512734 0.444144960515105
  outer loop
    vertex 22.309215069796394 24.312499999999996 0.0
    vertex 20.964444705991195 24.320600006605883 2.5
    vertex 21.22668331506585 23.6875 2.5
  endloop
endfacet
facet normal 0.8277544308805045 0.34286711158512734 0.444144960515105
  outer loop
    vertex 20.964444705991195 24.320600006605883 2.5
    vertex 22.309215069796394 24.312499999999996 0.0
    vertex 22.17185198885253 24.64412381298403 0.0
  endloop
endfacet
facet normal 0.8882899210302106 0.1169455866853382 0.4441449605151053
  outer loop
    vertex 22.17185198885253 24.64412381298403 0.0
    vertex 20.875 25.0 2.5
    vertex 20.964444705991195 24.320600006605883 2.5
  endloop
endfacet
facet normal 0.8882899210302106 0.1169455866853382 0.4441449605151053
  outer loop
    vertex 20.875 25.0 2.5
    vertex 22.17185198885253 24.64412381298403 0.0
    vertex 22.125 25.0 0.0
  endloop
endfacet
facet normal 0.8882899210302104 -0.11694558668533839 0.4441449605151053
  outer loop
    vertex 22.17185198885253 25.355876187015962 0.0
    vertex 20.875 25.0 2.5
    vertex 22.125 25.0 0.0
  endloop
endfacet
facet normal 0.8882899210302104 -0.11694558668533839 0.4441449605151053
  outer loop
    vertex 20.875 25.0 2.5
    vertex 22.17185198885253 25.355876187015962 0.0
    vertex 20.964444705991195 25.679399993394117 2.5
  endloop
endfacet
facet normal 0.8277544308805047 -0.3428671115851263 0.4441449605151052
  outer loop
    vertex 22.309215069796394 25.6875 0.0
    vertex 20.964444705991195 25.679399993394117 2.5
    vertex 22.17185198885253 25.355876187015962 0.0
  endloop
endfacet
facet normal 0.8277544308805047 -0.3428671115851263 0.4441449605151052
  outer loop
    vertex 20.964444705991195 25.679399993394117 2.5
    vertex 22.309215069796394 25.6875 0.0
    vertex 21.22668331506585 26.3125 2.5
  endloop
endfacet
facet normal 0.7108088441951659 -0.5454228094450837 0.44414496051510505
  outer loop
    vertex 22.527728175868496 25.972271824131504 0.0
    vertex 21.22668331506585 26.3125 2.5
    vertex 22.309215069796394 25.6875 0.0
  endloop
endfacet
facet normal 0.7108088441951659 -0.5454228094450837 0.44414496051510505
  outer loop
    vertex 21.22668331506585 26.3125 2.5
    vertex 22.527728175868496 25.972271824131504 0.0
    vertex 21.64384469938531 26.856155300614684 2.5
  endloop
endfacet
facet normal 0.5454228094450807 -0.7108088441951683 0.44414496051510505
  outer loop
    vertex 22.1875 27.273316684934148 2.5
    vertex 22.527728175868496 25.972271824131504 0.0
    vertex 22.8125 26.190784930203602 0.0
  endloop
endfacet
facet normal 0.5454228094450807 -0.7108088441951683 0.44414496051510505
  outer loop
    vertex 22.527728175868496 25.972271824131504 0.0
    vertex 22.1875 27.273316684934148 2.5
    vertex 21.64384469938531 26.856155300614684 2.5
  endloop
endfacet
facet normal 0.3428671115851292 -0.8277544308805033 0.4441449605151058
  outer loop
    vertex 22.820600006605883 27.535555294008805 2.5
    vertex 22.8125 26.190784930203602 0.0
    vertex 23.144123812984034 26.328148011147466 0.0
  endloop
endfacet
facet normal 0.3428671115851292 -0.8277544308805033 0.4441449605151058
  outer loop
    vertex 22.8125 26.190784930203602 0.0
    vertex 22.820600006605883 27.535555294008805 2.5
    vertex 22.1875 27.273316684934148 2.5
  endloop
endfacet
facet normal 0.1169455866853414 -0.8882899210302101 0.4441449605151053
  outer loop
    vertex 23.5 27.625 2.5
    vertex 23.144123812984034 26.328148011147466 0.0
    vertex 23.5 26.375000000000004 0.0
  endloop
endfacet
facet normal 0.1169455866853414 -0.8882899210302101 0.4441449605151053
  outer loop
    vertex 23.144123812984034 26.328148011147466 0.0
    vertex 23.5 27.625 2.5
    vertex 22.820600006605883 27.535555294008805 2.5
  endloop
endfacet
facet normal -0.11694558668534118 -0.8882899210302101 0.44414496051510527
  outer loop
    vertex 24.179399993394117 27.535555294008805 2.5
    vertex 23.5 26.375000000000004 0.0
    vertex 23.855876187015966 26.328148011147466 0.0
  endloop
endfacet
facet normal -0.11694558668534118 -0.8882899210302101 0.44414496051510527
  outer loop
    vertex 23.5 26.375000000000004 0.0
    vertex 24.179399993394117 27.535555294008805 2.5
    vertex 23.5 27.625 2.5
  endloop
endfacet
facet normal -0.3428671115851294 -0.8277544308805033 0.4441449605151054
  outer loop
    vertex 24.8125 27.273316684934148 2.5
    vertex 23.855876187015966 26.328148011147466 0.0
    vertex 24.1875 26.190784930203602 0.0
  endloop
endfacet
facet normal -0.3428671115851294 -0.8277544308805033 0.4441449605151054
  outer loop
    vertex 23.855876187015966 26.328148011147466 0.0
    vertex 24.8125 27.273316684934148 2.5
    vertex 24.179399993394117 27.535555294008805 2.5
  endloop
endfacet
facet normal -0.5454228094450845 -0.7108088441951651 0.4441449605151054
  outer loop
    vertex 25.356155300614684 26.856155300614684 2.5
    vertex 24.1875 26.190784930203602 0.0
    vertex 24.4722718241315 25.9722718241315 0.0
  endloop
endfacet
facet normal -0.5454228094450845 -0.7108088441951651 0.4441449605151054
  outer loop
    vertex 24.1875 26.190784930203602 0.0
    vertex 25.356155300614684 26.856155300614684 2.5
    vertex 24.8125 27.273316684934148 2.5
  endloop
endfacet
facet normal -0.7108088441951633 -0.5454228094450869 0.44414496051510527
  outer loop
    vertex 25.77331668493415 26.3125 2.5
    vertex 24.4722718241315 25.9722718241315 0.0
    vertex 24.690784930203606 25.6875 0.0
  endloop
endfacet
facet normal -0.7108088441951633 -0.5454228094450869 0.44414496051510527
  outer loop
    vertex 24.4722718241315 25.9722718241315 0.0
    vertex 25.77331668493415 26.3125 2.5
    vertex 25.356155300614684 26.856155300614684 2.5
  endloop
endfacet
facet normal -0.8277544308805034 -0.342867111585129 0.44414496051510566
  outer loop
    vertex 26.035555294008805 25.679399993394117 2.5
    vertex 24.690784930203606 25.6875 0.0
    vertex 24.82814801114747 25.355876187015962 0.0
  endloop
endfacet
facet normal -0.8277544308805034 -0.342867111585129 0.44414496051510566
  outer loop
    vertex 24.690784930203606 25.6875 0.0
    vertex 26.035555294008805 25.679399993394117 2.5
    vertex 25.77331668493415 26.3125 2.5
  endloop
endfacet
facet normal -0.8882899210302112 -0.11694558668533266 0.4441449605151053
  outer loop
    vertex 26.035555294008805 25.679399993394117 2.5
    vertex 24.875 25.0 0.0
    vertex 26.124999999999996 25.0 2.5
  endloop
endfacet
facet normal -0.8882899210302112 -0.11694558668533266 0.4441449605151053
  outer loop
    vertex 24.875 25.0 0.0
    vertex 26.035555294008805 25.679399993394117 2.5
    vertex 24.82814801114747 25.355876187015962 0.0
  endloop
endfacet
facet normal -0.8882899210302112 0.11694558668533266 0.4441449605151053
  outer loop
    vertex 26.124999999999996 25.0 2.5
    vertex 24.82814801114747 24.644123812984034 0.0
    vertex 26.035555294008805 24.320600006605883 2.5
  endloop
endfacet
facet normal -0.8882899210302112 0.11694558668533266 0.4441449605151053
  outer loop
    vertex 24.82814801114747 24.644123812984034 0.0
    vertex 26.124999999999996 25.0 2.5
    vertex 24.875 25.0 0.0
  endloop
endfacet
facet normal -0.8277544308805033 0.3428671115851292 0.4441449605151058
  outer loop
    vertex 26.035555294008805 24.320600006605883 2.5
    vertex 24.690784930203606 24.3125 0.0
    vertex 25.77331668493415 23.6875 2.5
  endloop
endfacet
facet normal -0.8277544308805033 0.3428671115851292 0.4441449605151058
  outer loop
    vertex 24.690784930203606 24.3125 0.0
    vertex 26.035555294008805 24.320600006605883 2.5
    vertex 24.82814801114747 24.644123812984034 0.0
  endloop
endfacet
facet normal -0.7108088441951651 0.5454228094450849 0.444144960515105
  outer loop
    vertex 25.77331668493415 23.6875 2.5
    vertex 24.472271824131504 24.027728175868496 0.0
    vertex 25.356155300614684 23.143844699385312 2.5
  endloop
endfacet
facet normal -0.7108088441951651 0.5454228094450849 0.444144960515105
  outer loop
    vertex 24.472271824131504 24.027728175868496 0.0
    vertex 25.77331668493415 23.6875 2.5
    vertex 24.690784930203606 24.3125 0.0
  endloop
endfacet
facet normal -0.5454228094450848 0.7108088441951652 0.444144960515105
  outer loop
    vertex 24.8125 22.72668331506585 2.5
    vertex 24.472271824131504 24.027728175868496 0.0
    vertex 24.1875 23.809215069796398 0.0
  endloop
endfacet
facet normal -0.5454228094450848 0.7108088441951652 0.444144960515105
  outer loop
    vertex 24.472271824131504 24.027728175868496 0.0
    vertex 24.8125 22.72668331506585 2.5
    vertex 25.356155300614684 23.143844699385312 2.5
  endloop
endfacet
facet normal -0.3428671115851284 0.8277544308805038 0.4441449605151053
  outer loop
    vertex 24.179399993394117 22.464444705991195 2.5
    vertex 24.1875 23.809215069796398 0.0
    vertex 23.855876187015966 23.67185198885253 0.0
  endloop
endfacet
facet normal -0.3428671115851284 0.8277544308805038 0.4441449605151053
  outer loop
    vertex 24.1875 23.809215069796398 0.0
    vertex 24.179399993394117 22.464444705991195 2.5
    vertex 24.8125 22.72668331506585 2.5
  endloop
endfacet
facet normal -0.1169455866853384 0.8882899210302106 0.4441449605151052
  outer loop
    vertex 23.5 22.375 2.5
    vertex 23.855876187015966 23.67185198885253 0.0
    vertex 23.500000000000004 23.625 0.0
  endloop
endfacet
facet normal -0.1169455866853384 0.8882899210302106 0.4441449605151052
  outer loop
    vertex 23.855876187015966 23.67185198885253 0.0
    vertex 23.5 22.375 2.5
    vertex 24.179399993394117 22.464444705991195 2.5
  endloop
endfacet
facet normal 0.11694558668533851 0.8882899210302104 0.4441449605151053
  outer loop
    vertex 22.820600006605883 22.464444705991195 2.5
    vertex 23.500000000000004 23.625 0.0
    vertex 23.14412381298403 23.67185198885253 0.0
  endloop
endfacet
facet normal 0.11694558668533851 0.8882899210302104 0.4441449605151053
  outer loop
    vertex 23.500000000000004 23.625 0.0
    vertex 22.820600006605883 22.464444705991195 2.5
    vertex 23.5 22.375 2.5
  endloop
endfacet
facet normal 0.0 0.0 -1.0
  outer loop
    vertex 0.0 50.0 0.0
    vertex 22.527728175868496 25.972271824131504 0.0
    vertex 0.0 0.0 0.0
  endloop
endfacet
facet normal 0.0 0.0 -1.0
  outer loop
    vertex 22.527728175868496 25.972271824131504 0.0
    vertex 0.0 50.0 0.0
    vertex 22.8125 26.190784930203602 0.0
  endloop
endfacet
facet normal 0.0 0.0 -1.0
  outer loop
    vertex 22.8125 26.190784930203602 0.0
    vertex 0.0 50.0 0.0
    vertex 70.0 50.0 0.0
  endloop
endfacet
facet normal 0.0 0.0 -1.0
  outer loop
    vertex 0.0 0.0 0.0
    vertex 22.527728175868496 25.972271824131504 0.0
    vertex 22.309215069796394 25.6875 0.0
  endloop
endfacet
facet normal 0.0 0.0 -1.0
  outer loop
    vertex 0.0 0.0 0.0
    vertex 22.309215069796394 25.6875 0.0
    vertex 22.17185198885253 25.355876187015962 0.0
  endloop
endfacet
facet normal 0.0 0.0 -1.0
  outer loop
    vertex 0.0 0.0 0.0
    vertex 22.17185198885253 25.355876187015962 0.0
    vertex 22.125 25.0 0.0
  endloop
endfacet
facet normal 0.0 0.0 -1.0
  outer loop
    vertex 22.8125 26.190784930203602 0.0
    vertex 70.0 50.0 0.0
    vertex 23.144123812984034 26.328148011147466 0.0
  endloop
endfacet
facet normal 0.0 0.0 -1.0
  outer loop
    vertex 23.144123812984034 26.328148011147466 0.0
    vertex 70.0 50.0 0.0
    vertex 23.5 26.375000000000004 0.0
  endloop
endfacet
facet normal 0.0 0.0 -1.0
  outer loop
    vertex 23.5 26.375000000000004 0.0
    vertex 70.0 50.0 0.0
    vertex 23.855876187015966 26.328148011147466 0.0
  endloop
endfacet
facet normal 0.0 0.0 -1.0
  outer loop
    vertex 23.855876187015966 26.328148011147466 0.0
    vertex 70.0 50.0 0.0
    vertex 24.1875 26.190784930203602 0.0
  endloop
endfacet
facet normal 0.0 0.0 -1.0
  outer loop
    vertex 24.1875 26.190784930203602 0.0
    vertex 70.0 50.0 0.0
    vertex 24.4722718241315 25.9722718241315 0.0
  endloop
endfacet
facet normal 0.0 0.0 -1.0
  outer loop
    vertex 24.4722718241315 25.9722718241315 0.0
    vertex 70.0 50.0 0.0
    vertex 24.690784930203606 25.6875 0.0
  endloop
endfacet
facet normal 0.0 0.0 -1.0
  outer loop
    vertex 24.690784930203606 25.6875 0.0
    vertex 70.0 50.0 0.0
    vertex 24.82814801114747 25.355876187015962 0.0
  endloop
endfacet
facet normal 0.0 0.0 -1.0
  outer loop
    vertex 24.82814801114747 25.355876187015962 0.0
    vertex 70.0 50.0 0.0
    vertex 24.875 25.0 0.0
  endloop
endfacet
facet normal 0.0 0.0 -1.0
  outer loop
    vertex 24.875 25.0 0.0
    vertex 70.0 50.0 0.0
    vertex 45.65420226712138 26.084090030881843 -4.5824455341403335e-15
  endloop
endfacet
facet normal 0.0 0.0 -1.0
  outer loop
    vertex 24.875 25.0 0.0
    vertex 45.65420226712138 26.084090030881843 -4.5824455341403335e-15
    vertex 45.4024389793978 25.82824199727776 -4.5824455341403335e-15
  endloop
endfacet
facet normal 0.0 0.0 -1.0
  outer loop
    vertex 24.875 25.0 0.0
    vertex 45.4024389793978 25.82824199727776 -4.5824455341403335e-15
    vertex 45.22547266142291 25.515950640293813 -4.5824455341403335e-15
  endloop
endfacet
facet normal 0.0 0.0 -1.0
  outer loop
    vertex 24.875 25.0 0.0
    vertex 45.22547266142291 25.515950640293813 -4.5824455341403335e-15
    vertex 45.13536327531604 25.1684980998226 -4.5824455341403335e-15
  endloop
endfacet
facet normal 0.0 0.0 -1.0
  outer loop
    vertex 45.65420226712138 26.084090030881843 -4.5824455341403335e-15
    vertex 70.0 50.0 0.0
    vertex 45.963605272593796 26.266059120424803 -4.5824455341403335e-15
  endloop
endfacet
facet normal 0.0 0.0 -1.0
  outer loop
    vertex 45.963605272593796 26.266059120424803 -4.5824455341403335e-15
    vertex 70.0 50.0 0.0
    vertex 46.30956269230475 26.36174837317244 -4.5824455341403335e-15
  endloop
endfacet
facet normal 0.0 0.0 -1.0
  outer loop
    vertex 46.30956269230475 26.36174837317244 -4.5824455341403335e-15
    vertex 70.0 50.0 0.0
    vertex 46.6684980998226 26.36463672468396 -4.5824455341403335e-15
  endloop
endfacet
facet normal 0.0 0.0 -1.0
  outer loop
    vertex 46.6684980998226 26.36463672468396 -4.5824455341403335e-15
    vertex 70.0 50.0 0.0
    vertex 47.01595064029382 26.274527338577087 -4.5824455341403335e-15
  endloop
endfacet
facet normal 0.0 0.0 -1.0
  outer loop
    vertex 47.01595064029382 26.274527338577087 -4.5824455341403335e-15
    vertex 70.0 50.0 0.0
    vertex 47.328241997277765 26.097561020602203 -4.5824455341403335e-15
  endloop
endfacet
facet normal 0.0 0.0 -1.0
  outer loop
    vertex 47.328241997277765 26.097561020602203 -4.5824455341403335e-15
    vertex 70.0 50.0 0.0
    vertex 47.584090030881846 25.84579773287862 -4.5824455341403335e-15
  endloop
endfacet
facet normal 0.0 0.0 -1.0
  outer loop
    vertex 47.584090030881846 25.84579773287862 -4.5824455341403335e-15
    vertex 70.0 50.0 0.0
    vertex 47.766059120424806 25.536394727406204 -4.5824455341403335e-15
  endloop
endfacet
facet normal 0.0 0.0 -1.0
  outer loop
    vertex 47.766059120424806 25.536394727406204 -4.5824455341403335e-15
    vertex 70.0 50.0 0.0
    vertex 47.86174837317244 25.190437307695248 -4.5824455341403335e-15
  endloop
endfacet
facet normal 0.0 0.0 -1.0
  outer loop
    vertex 47.86174837317244 25.190437307695248 -4.5824455341403335e-15
    vertex 70.0 50.0 0.0
    vertex 47.86463672468396 24.831501900177397 -4.5824455341403335e-15
  endloop
endfacet
facet normal 0.0 0.0 -1.0
  outer loop
    vertex 0.0 0.0 0.0
    vertex 22.8125 23.809215069796394 0.0
    vertex 70.0 0.0 0.0
  endloop
endfacet
facet normal 0.0 0.0 -1.0
  outer loop
    vertex 22.8125 23.809215069796394 0.0
    vertex 0.0 0.0 0.0
    vertex 22.527728175868496 24.027728175868496 0.0
  endloop
endfacet
facet normal 0.0 0.0 -1.0
  outer loop
    vertex 22.527728175868496 24.027728175868496 0.0
    vertex 0.0 0.0 0.0
    vertex 22.309215069796394 24.312499999999996 0.0
  endloop
endfacet
facet normal 0.0 0.0 -1.0
  outer loop
    vertex 22.309215069796394 24.312499999999996 0.0
    vertex 0.0 0.0 0.0
    vertex 22.17185198885253 24.64412381298403 0.0
  endloop
endfacet
facet normal 0.0 0.0 -1.0
  outer loop
    vertex 22.17185198885253 24.64412381298403 0.0
    vertex 0.0 0.0 0.0
    vertex 22.125 25.0 0.0
  endloop
endfacet
facet normal 0.0 0.0 -1.0
  outer loop
    vertex 70.0 0.0 0.0
    vertex 22.8125 23.809215069796394 0.0
    vertex 23.14412381298403 23.67185198885253 0.0
  endloop
endfacet
facet normal 0.0 0.0 -1.0
  outer loop
    vertex 70.0 0.0 0.0
    vertex 23.14412381298403 23.67185198885253 0.0
    vertex 23.500000000000004 23.625 0.0
  endloop
endfacet
facet normal 0.0 0.0 -1.0
  outer loop
    vertex 70.0 0.0 0.0
    vertex 23.500000000000004 23.625 0.0
    vertex 23.855876187015966 23.67185198885253 0.0
  endloop
endfacet
facet normal 0.0 0.0 -1.0
  outer loop
    vertex 70.0 0.0 0.0
    vertex 23.855876187015966 23.67185198885253 0.0
    vertex 24.1875 23.809215069796398 0.0
  endloop
endfacet
facet normal 0.0 0.0 -1.0
  outer loop
    vertex 70.0 0.0 0.0
    vertex 24.1875 23.809215069796398 0.0
    vertex 24.472271824131504 24.027728175868496 0.0
  endloop
endfacet
facet normal 0.0 0.0 -1.0
  outer loop
    vertex 70.0 0.0 0.0
    vertex 24.472271824131504 24.027728175868496 0.0
    vertex 24.690784930203606 24.3125 0.0
  endloop
endfacet
facet normal 0.0 0.0 -1.0
  outer loop
    vertex 70.0 0.0 0.0
    vertex 24.690784930203606 24.3125 0.0
    vertex 24.82814801114747 24.644123812984034 0.0
  endloop
endfacet
facet normal 0.0 0.0 -1.0
  outer loop
    vertex 70.0 0.0 0.0
    vertex 24.82814801114747 24.644123812984034 0.0
    vertex 24.875 25.0 0.0
  endloop
endfacet
facet normal 0.0 0.0 -1.0
  outer loop
    vertex 70.0 0.0 0.0
    vertex 24.875 25.0 0.0
    vertex 45.671758002722235 23.9024389793978 -4.5824455341403335e-15
  endloop
endfacet
facet normal 0.0 0.0 -1.0
  outer loop
    vertex 45.671758002722235 23.9024389793978 -4.5824455341403335e-15
    vertex 24.875 25.0 0.0
    vertex 45.415909969118154 24.15420226712138 -4.5824455341403335e-15
  endloop
endfacet
facet normal 0.0 0.0 -1.0
  outer loop
    vertex 45.415909969118154 24.15420226712138 -4.5824455341403335e-15
    vertex 24.875 25.0 0.0
    vertex 45.233940879575194 24.463605272593796 -4.5824455341403335e-15
  endloop
endfacet
facet normal 0.0 0.0 -1.0
  outer loop
    vertex 45.233940879575194 24.463605272593796 -4.5824455341403335e-15
    vertex 24.875 25.0 0.0
    vertex 45.13825162682756 24.80956269230475 -4.5824455341403335e-15
  endloop
endfacet
facet normal 0.0 0.0 -1.0
  outer loop
    vertex 45.13825162682756 24.80956269230475 -4.5824455341403335e-15
    vertex 24.875 25.0 0.0
    vertex 45.13536327531604 25.1684980998226 -4.5824455341403335e-15
  endloop
endfacet
facet normal 0.0 0.0 -1.0
  outer loop
    vertex 70.0 0.0 0.0
    vertex 45.671758002722235 23.9024389793978 -4.5824455341403335e-15
    vertex 45.98404935970618 23.725472661422913 -4.5824455341403335e-15
  endloop
endfacet
facet normal 0.0 0.0 -1.0
  outer loop
    vertex 70.0 0.0 0.0
    vertex 45.98404935970618 23.725472661422913 -4.5824455341403335e-15
    vertex 46.3315019001774 23.63536327531604 -4.5824455341403335e-15
  endloop
endfacet
facet normal 0.0 0.0 -1.0
  outer loop
    vertex 70.0 0.0 0.0
    vertex 46.3315019001774 23.63536327531604 -4.5824455341403335e-15
    vertex 46.69043730769525 23.638251626827557 -4.5824455341403335e-15
  endloop
endfacet
facet normal 0.0 0.0 -1.0
  outer loop
    vertex 70.0 0.0 0.0
    vertex 46.69043730769525 23.638251626827557 -4.5824455341403335e-15
    vertex 47.036394727406204 23.733940879575194 -4.5824455341403335e-15
  endloop
endfacet
facet normal 0.0 0.0 -1.0
  outer loop
    vertex 70.0 0.0 0.0
    vertex 47.036394727406204 23.733940879575194 -4.5824455341403335e-15
    vertex 47.34579773287862 23.915909969118157 -4.5824455341403335e-15
  endloop
endfacet
facet normal 0.0 0.0 -1.0
  outer loop
    vertex 70.0 0.0 0.0
    vertex 47.34579773287862 23.915909969118157 -4.5824455341403335e-15
    vertex 47.5975610206022 24.17175800272224 -4.5824455341403335e-15
  endloop
endfacet
facet normal 0.0 0.0 -1.0
  outer loop
    vertex 70.0 0.0 0.0
    vertex 47.5975610206022 24.17175800272224 -4.5824455341403335e-15
    vertex 47.774527338577094 24.48404935970618 -4.5824455341403335e-15
  endloop
endfacet
facet normal 0.0 0.0 -1.0
  outer loop
    vertex 70.0 0.0 0.0
    vertex 47.774527338577094 24.48404935970618 -4.5824455341403335e-15
    vertex 47.86463672468396 24.831501900177397 -4.5824455341403335e-15
  endloop
endfacet
facet normal 0.0 0.0 -1.0
  outer loop
    vertex 70.0 0.0 0.0
    vertex 47.86463672468396 24.831501900177397 -4.5824455341403335e-15
    vertex 70.0 50.0 0.0
  endloop
endfacet
facet normal 0.45420658666551167 -0.7722898618256627 0.44414496051510444
  outer loop
    vertex 45.47597370222452 27.417021957174626 2.4999999999999956
    vertex 45.65420226712138 26.084090030881843 -4.5824455341403335e-15
    vertex 45.963605272593796 26.266059120424803 -4.5824455341403335e-15
  endloop
endfacet
facet normal 0.45420658666551167 -0.7722898618256627 0.44414496051510444
  outer loop
    vertex 45.65420226712138 26.084090030881843 -4.5824455341403335e-15
    vertex 45.47597370222452 27.417021957174626 2.4999999999999956
    vertex 44.88529523723172 27.069626422592602 2.4999999999999956
  endloop
endfacet
facet normal 0.23884654795074192 -0.8635320379586677 0.4441449605151047
  outer loop
    vertex 46.13643786712725 27.599701439692836 2.4999999999999956
    vertex 45.963605272593796 26.266059120424803 -4.5824455341403335e-15
    vertex 46.30956269230475 26.36174837317244 -4.5824455341403335e-15
  endloop
endfacet
facet normal 0.23884654795074192 -0.8635320379586677 0.4441449605151047
  outer loop
    vertex 45.963605272593796 26.266059120424803 -4.5824455341403335e-15
    vertex 46.13643786712725 27.599701439692836 2.4999999999999956
    vertex 45.47597370222452 27.417021957174626 2.4999999999999956
  endloop
endfacet
facet normal 0.007209511705720675 -0.8959259327589535 0.44414496051510494
  outer loop
    vertex 46.821678190570424 27.605215565305745 2.4999999999999956
    vertex 46.30956269230475 26.36174837317244 -4.5824455341403335e-15
    vertex 46.6684980998226 26.36463672468396 -4.5824455341403335e-15
  endloop
endfacet
facet normal 0.007209511705720675 -0.8959259327589535 0.44414496051510494
  outer loop
    vertex 46.30956269230475 26.36174837317244 -4.5824455341403335e-15
    vertex 46.821678190570424 27.605215565305745 2.4999999999999956
    vertex 46.13643786712725 27.599701439692836 2.4999999999999956
  endloop
endfacet
facet normal -0.22491884084777103 -0.8672639558293255 0.44414496051510555
  outer loop
    vertex 47.48499667692456 27.43318855546535 2.4999999999999956
    vertex 46.6684980998226 26.36463672468396 -4.5824455341403335e-15
    vertex 47.01595064029382 26.274527338577087 -4.5824455341403335e-15
  endloop
endfacet
facet normal -0.22491884084777103 -0.8672639558293255 0.44414496051510555
  outer loop
    vertex 46.6684980998226 26.36463672468396 -4.5824455341403335e-15
    vertex 47.48499667692456 27.43318855546535 2.4999999999999956
    vertex 46.821678190570424 27.605215565305745 2.4999999999999956
  endloop
endfacet
facet normal -0.441719346093441 -0.7794993735313833 0.44414496051510466
  outer loop
    vertex 48.08118926753027 27.095343766604202 2.4999999999999956
    vertex 47.01595064029382 26.274527338577087 -4.5824455341403335e-15
    vertex 47.328241997277765 26.097561020602203 -4.5824455341403335e-15
  endloop
endfacet
facet normal -0.441719346093441 -0.7794993735313833 0.44414496051510466
  outer loop
    vertex 47.01595064029382 26.274527338577087 -4.5824455341403335e-15
    vertex 48.08118926753027 27.095343766604202 2.4999999999999956
    vertex 47.48499667692456 27.43318855546535 2.4999999999999956
  endloop
endfacet
facet normal -0.6284174078785802 -0.6386131971108983 0.44414496051510405
  outer loop
    vertex 48.5696264225926 26.614704762768273 2.4999999999999956
    vertex 47.328241997277765 26.097561020602203 -4.5824455341403335e-15
    vertex 47.584090030881846 25.84579773287862 -4.5824455341403335e-15
  endloop
endfacet
facet normal -0.6284174078785802 -0.6386131971108983 0.44414496051510405
  outer loop
    vertex 47.328241997277765 26.097561020602203 -4.5824455341403335e-15
    vertex 48.5696264225926 26.614704762768273 2.4999999999999956
    vertex 48.08118926753027 27.095343766604202 2.4999999999999956
  endloop
endfacet
facet normal -0.7722898618256627 -0.45420658666551167 0.44414496051510444
  outer loop
    vertex 48.917021957174626 26.024026297775475 2.4999999999999956
    vertex 47.584090030881846 25.84579773287862 -4.5824455341403335e-15
    vertex 47.766059120424806 25.536394727406204 -4.5824455341403335e-15
  endloop
endfacet
facet normal -0.7722898618256627 -0.45420658666551167 0.44414496051510444
  outer loop
    vertex 47.584090030881846 25.84579773287862 -4.5824455341403335e-15
    vertex 48.917021957174626 26.024026297775475 2.4999999999999956
    vertex 48.5696264225926 26.614704762768273 2.4999999999999956
  endloop
endfacet
facet normal -0.8635320379586658 -0.2388465479507472 0.4441449605151055
  outer loop
    vertex 49.09970143969284 25.363562132872747 2.4999999999999956
    vertex 47.766059120424806 25.536394727406204 -4.5824455341403335e-15
    vertex 47.86174837317244 25.190437307695248 -4.5824455341403335e-15
  endloop
endfacet
facet normal -0.8635320379586658 -0.2388465479507472 0.4441449605151055
  outer loop
    vertex 47.766059120424806 25.536394727406204 -4.5824455341403335e-15
    vertex 49.09970143969284 25.363562132872747 2.4999999999999956
    vertex 48.917021957174626 26.024026297775475 2.4999999999999956
  endloop
endfacet
facet normal -0.8959259327589534 -0.007209511705714973 0.44414496051510577
  outer loop
    vertex 49.09970143969284 25.363562132872747 2.4999999999999956
    vertex 47.86463672468396 24.831501900177397 -4.5824455341403335e-15
    vertex 49.10521556530575 24.678321809429576 2.4999999999999956
  endloop
endfacet
facet normal -0.8959259327589534 -0.007209511705714973 0.44414496051510577
  outer loop
    vertex 47.86463672468396 24.831501900177397 -4.5824455341403335e-15
    vertex 49.09970143969284 25.363562132872747 2.4999999999999956
    vertex 47.86174837317244 25.190437307695248 -4.5824455341403335e-15
  endloop
endfacet
facet normal -0.8672639558293268 0.22491884084776786 0.4441449605151046
  outer loop
    vertex 49.10521556530575 24.678321809429576 2.4999999999999956
    vertex 47.774527338577094 24.48404935970618 -4.5824455341403335e-15
    vertex 48.93318855546535 24.015003323075437 2.4999999999999956
  endloop
endfacet
facet normal -0.8672639558293268 0.22491884084776786 0.4441449605151046
  outer loop
    vertex 47.774527338577094 24.48404935970618 -4.5824455341403335e-15
    vertex 49.10521556530575 24.678321809429576 2.4999999999999956
    vertex 47.86463672468396 24.831501900177397 -4.5824455341403335e-15
  endloop
endfacet
facet normal -0.7794993735313802 0.44171934609344626 0.4441449605151049
  outer loop
    vertex 48.93318855546535 24.015003323075437 2.4999999999999956
    vertex 47.5975610206022 24.17175800272224 -4.5824455341403335e-15
    vertex 48.5953437666042 23.41881073246973 2.4999999999999956
  endloop
endfacet
facet normal -0.7794993735313802 0.44171934609344626 0.4441449605151049
  outer loop
    vertex 47.5975610206022 24.17175800272224 -4.5824455341403335e-15
    vertex 48.93318855546535 24.015003323075437 2.4999999999999956
    vertex 47.774527338577094 24.48404935970618 -4.5824455341403335e-15
  endloop
endfacet
facet normal -0.6386131971108989 0.6284174078785786 0.4441449605151052
  outer loop
    vertex 48.5953437666042 23.41881073246973 2.4999999999999956
    vertex 47.34579773287862 23.915909969118157 -4.5824455341403335e-15
    vertex 48.11470476276827 22.930373577407398 2.4999999999999956
  endloop
endfacet
facet normal -0.6386131971108989 0.6284174078785786 0.4441449605151052
  outer loop
    vertex 47.34579773287862 23.915909969118157 -4.5824455341403335e-15
    vertex 48.5953437666042 23.41881073246973 2.4999999999999956
    vertex 47.5975610206022 24.17175800272224 -4.5824455341403335e-15
  endloop
endfacet
facet normal -0.4542065866655129 0.7722898618256618 0.44414496051510477
  outer loop
    vertex 47.52402629777548 22.582978042825374 2.4999999999999956
    vertex 47.34579773287862 23.915909969118157 -4.5824455341403335e-15
    vertex 47.036394727406204 23.733940879575194 -4.5824455341403335e-15
  endloop
endfacet
facet normal -0.4542065866655129 0.7722898618256618 0.44414496051510477
  outer loop
    vertex 47.34579773287862 23.915909969118157 -4.5824455341403335e-15
    vertex 47.52402629777548 22.582978042825374 2.4999999999999956
    vertex 48.11470476276827 22.930373577407398 2.4999999999999956
  endloop
endfacet
facet normal -0.2388465479507448 0.8635320379586667 0.4441449605151051
  outer loop
    vertex 46.86356213287275 22.40029856030716 2.4999999999999956
    vertex 47.036394727406204 23.733940879575194 -4.5824455341403335e-15
    vertex 46.69043730769525 23.638251626827557 -4.5824455341403335e-15
  endloop
endfacet
facet normal -0.2388465479507448 0.8635320379586667 0.4441449605151051
  outer loop
    vertex 47.036394727406204 23.733940879575194 -4.5824455341403335e-15
    vertex 46.86356213287275 22.40029856030716 2.4999999999999956
    vertex 47.52402629777548 22.582978042825374 2.4999999999999956
  endloop
endfacet
facet normal -0.007209511705717781 0.8959259327589534 0.44414496051510527
  outer loop
    vertex 46.178321809429576 22.39478443469425 2.4999999999999956
    vertex 46.69043730769525 23.638251626827557 -4.5824455341403335e-15
    vertex 46.3315019001774 23.63536327531604 -4.5824455341403335e-15
  endloop
endfacet
facet normal -0.007209511705717781 0.8959259327589534 0.44414496051510527
  outer loop
    vertex 46.69043730769525 23.638251626827557 -4.5824455341403335e-15
    vertex 46.178321809429576 22.39478443469425 2.4999999999999956
    vertex 46.86356213287275 22.40029856030716 2.4999999999999956
  endloop
endfacet
facet normal 0.22491884084777122 0.8672639558293255 0.44414496051510566
  outer loop
    vertex 45.51500332307543 22.566811444534647 2.4999999999999956
    vertex 46.3315019001774 23.63536327531604 -4.5824455341403335e-15
    vertex 45.98404935970618 23.725472661422913 -4.5824455341403335e-15
  endloop
endfacet
facet normal 0.22491884084777122 0.8672639558293255 0.44414496051510566
  outer loop
    vertex 46.3315019001774 23.63536327531604 -4.5824455341403335e-15
    vertex 45.51500332307543 22.566811444534647 2.4999999999999956
    vertex 46.178321809429576 22.39478443469425 2.4999999999999956
  endloop
endfacet
facet normal 0.4417193460934399 0.7794993735313835 0.44414496051510544
  outer loop
    vertex 44.91881073246973 22.904656233395794 2.4999999999999956
    vertex 45.98404935970618 23.725472661422913 -4.5824455341403335e-15
    vertex 45.671758002722235 23.9024389793978 -4.5824455341403335e-15
  endloop
endfacet
facet normal 0.4417193460934399 0.7794993735313835 0.44414496051510544
  outer loop
    vertex 45.98404935970618 23.725472661422913 -4.5824455341403335e-15
    vertex 44.91881073246973 22.904656233395794 2.4999999999999956
    vertex 45.51500332307543 22.566811444534647 2.4999999999999956
  endloop
endfacet
facet normal 0.628417407878581 0.6386131971108971 0.44414496051510455
  outer loop
    vertex 44.430373577407394 23.385295237231727 2.4999999999999956
    vertex 45.671758002722235 23.9024389793978 -4.5824455341403335e-15
    vertex 45.415909969118154 24.15420226712138 -4.5824455341403335e-15
  endloop
endfacet
facet normal 0.628417407878581 0.6386131971108971 0.44414496051510455
  outer loop
    vertex 45.671758002722235 23.9024389793978 -4.5824455341403335e-15
    vertex 44.430373577407394 23.385295237231727 2.4999999999999956
    vertex 44.91881073246973 22.904656233395794 2.4999999999999956
  endloop
endfacet
facet normal 0.7722898618256626 0.45420658666551184 0.44414496051510455
  outer loop
    vertex 45.415909969118154 24.15420226712138 -4.5824455341403335e-15
    vertex 44.082978042825374 23.975973702224522 2.4999999999999956
    vertex 44.430373577407394 23.385295237231727 2.4999999999999956
  endloop
endfacet
facet normal 0.7722898618256626 0.45420658666551184 0.44414496051510455
  outer loop
    vertex 44.082978042825374 23.975973702224522 2.4999999999999956
    vertex 45.415909969118154 24.15420226712138 -4.5824455341403335e-15
    vertex 45.233940879575194 24.463605272593796 -4.5824455341403335e-15
  endloop
endfacet
facet normal 0.8635320379586675 0.23884654795074273 0.44414496051510494
  outer loop
    vertex 45.233940879575194 24.463605272593796 -4.5824455341403335e-15
    vertex 43.900298560307164 24.636437867127245 2.4999999999999956
    vertex 44.082978042825374 23.975973702224522 2.4999999999999956
  endloop
endfacet
facet normal 0.8635320379586675 0.23884654795074273 0.44414496051510494
  outer loop
    vertex 43.900298560307164 24.636437867127245 2.4999999999999956
    vertex 45.233940879575194 24.463605272593796 -4.5824455341403335e-15
    vertex 45.13825162682756 24.80956269230475 -4.5824455341403335e-15
  endloop
endfacet
facet normal 0.8959259327589535 0.00720951170572074 0.44414496051510494
  outer loop
    vertex 45.13825162682756 24.80956269230475 -4.5824455341403335e-15
    vertex 43.89478443469425 25.32167819057042 2.4999999999999956
    vertex 43.900298560307164 24.636437867127245 2.4999999999999956
  endloop
endfacet
facet normal 0.8959259327589535 0.00720951170572074 0.44414496051510494
  outer loop
    vertex 43.89478443469425 25.32167819057042 2.4999999999999956
    vertex 45.13825162682756 24.80956269230475 -4.5824455341403335e-15
    vertex 45.13536327531604 25.1684980998226 -4.5824455341403335e-15
  endloop
endfacet
facet normal 0.8672639558293254 -0.22491884084777133 0.44414496051510577
  outer loop
    vertex 45.22547266142291 25.515950640293813 -4.5824455341403335e-15
    vertex 43.89478443469425 25.32167819057042 2.4999999999999956
    vertex 45.13536327531604 25.1684980998226 -4.5824455341403335e-15
  endloop
endfacet
facet normal 0.8672639558293254 -0.22491884084777133 0.44414496051510577
  outer loop
    vertex 43.89478443469425 25.32167819057042 2.4999999999999956
    vertex 45.22547266142291 25.515950640293813 -4.5824455341403335e-15
    vertex 44.06681144453465 25.984996676924563 2.4999999999999956
  endloop
endfacet
facet normal 0.7794993735313823 -0.4417193460934419 0.44414496051510566
  outer loop
    vertex 45.4024389793978 25.82824199727776 -4.5824455341403335e-15
    vertex 44.06681144453465 25.984996676924563 2.4999999999999956
    vertex 45.22547266142291 25.515950640293813 -4.5824455341403335e-15
  endloop
endfacet
facet normal 0.7794993735313823 -0.4417193460934419 0.44414496051510566
  outer loop
    vertex 44.06681144453465 25.984996676924563 2.4999999999999956
    vertex 45.4024389793978 25.82824199727776 -4.5824455341403335e-15
    vertex 44.4046562333958 26.58118926753027 2.4999999999999956
  endloop
endfacet
facet normal 0.6386131971108995 -0.6284174078785786 0.4441449605151045
  outer loop
    vertex 45.65420226712138 26.084090030881843 -4.5824455341403335e-15
    vertex 44.4046562333958 26.58118926753027 2.4999999999999956
    vertex 45.4024389793978 25.82824199727776 -4.5824455341403335e-15
  endloop
endfacet
facet normal 0.6386131971108995 -0.6284174078785786 0.4441449605151045
  outer loop
    vertex 44.4046562333958 26.58118926753027 2.4999999999999956
    vertex 45.65420226712138 26.084090030881843 -4.5824455341403335e-15
    vertex 44.88529523723172 27.069626422592602 2.4999999999999956
  endloop
endfacet
endsolid platform
