solid base
facet normal 0.0 0.0 -1.0
  outer loop
    vertex 50.0 75.0 0.0
    vertex 0.0 0.0 0.0
    vertex 0.0 75.0 0.0
  endloop
endfacet
facet normal 0.0 0.0 -1.0
  outer loop
    vertex 0.0 0.0 0.0
    vertex 50.0 75.0 0.0
    vertex 50.0 0.0 0.0
  endloop
endfacet
facet normal -0.0 -0.0 1.0
  outer loop
    vertex 0.0 0.0 2.5
    vertex 9.999999999999998 45.0 2.499999999999997
    vertex 0.0 75.0 2.5
  endloop
endfacet
facet normal -0.0 -0.0 1.0
  outer loop
    vertex 9.999999999999998 45.0 2.499999999999997
    vertex 0.0 0.0 2.5
    vertex 50.0 0.0 2.5
  endloop
endfacet
facet normal -0.0 -0.0 1.0
  outer loop
    vertex 9.999999999999998 45.0 2.499999999999997
    vertex 50.0 0.0 2.5
    vertex 40.0 45.0 2.5
  endloop
endfacet
facet normal -0.0 -0.0 1.0
  outer loop
    vertex 40.0 45.0 2.5
    vertex 50.0 0.0 2.5
    vertex 40.0 65.0 2.5
  endloop
endfacet
facet normal -0.0 -0.0 1.0
  outer loop
    vertex 0.0 75.0 2.5
    vertex 9.999999999999998 65.0 2.5
    vertex 50.0 75.0 2.5
  endloop
endfacet
facet normal -0.0 -0.0 1.0
  outer loop
    vertex 9.999999999999998 65.0 2.5
    vertex 0.0 75.0 2.5
    vertex 9.999999999999998 45.0 2.499999999999997
  endloop
endfacet
facet normal -0.0 -0.0 1.0
  outer loop
    vertex 50.0 75.0 2.5
    vertex 9.999999999999998 65.0 2.5
    vertex 40.0 65.0 2.5
  endloop
endfacet
facet normal -0.0 -0.0 1.0
  outer loop
    vertex 50.0 75.0 2.5
    vertex 40.0 65.0 2.5
    vertex 50.0 0.0 2.5
  endloop
endfacet
facet normal -0.0 -1.0 -0.0
  outer loop
    vertex 50.0 0.0 2.5
    vertex 0.0 0.0 0.0
    vertex 50.0 0.0 0.0
  endloop
endfacet
facet normal -0.0 -1.0 -0.0
  outer loop
    vertex 0.0 0.0 0.0
    vertex 50.0 0.0 2.5
    vertex 0.0 0.0 2.5
  endloop
endfacet
facet normal -1.0 0.0 0.0
  outer loop
    vertex 0.0 75.0 2.5
    vertex 0.0 0.0 0.0
    vertex 0.0 0.0 2.5
  endloop
endfacet
facet normal -1.0 0.0 0.0
  outer loop
    vertex 0.0 0.0 0.0
    vertex 0.0 75.0 2.5
    vertex 0.0 75.0 0.0
  endloop
endfacet
facet normal -0.0 1.0 0.0
  outer loop
    vertex 0.0 75.0 2.5
    vertex 50.0 75.0 0.0
    vertex 0.0 75.0 0.0
  endloop
endfacet
facet normal -0.0 1.0 0.0
  outer loop
    vertex 50.0 75.0 0.0
    vertex 0.0 75.0 2.5
    vertex 50.0 75.0 2.5
  endloop
endfacet
facet normal 1.0 0.0 0.0
  outer loop
    vertex 50.0 75.0 0.0
    vertex 50.0 0.0 2.5
    vertex 50.0 0.0 0.0
  endloop
endfacet
facet normal 1.0 0.0 0.0
  outer loop
    vertex 50.0 0.0 2.5
    vertex 50.0 75.0 0.0
    vertex 50.0 75.0 2.5
  endloop
endfacet
facet normal -2.3499720687899144e-17 -2.5178272165606226e-17 1.0
  outer loop
    vertex 32.5 48.0 2.4999999999999956
    vertex 17.499999999999996 62.0 2.4999999999999956
    vertex 17.499999999999996 48.0 2.4999999999999947
  endloop
endfacet
facet normal -2.3499720687899144e-17 -2.5178272165606226e-17 1.0
  outer loop
    vertex 17.499999999999996 62.0 2.4999999999999956
    vertex 32.5 48.0 2.4999999999999956
    vertex 32.5 62.0 2.4999999999999956
  endloop
endfacet
facet normal -5.287437154777308e-17 -7.931155732165963e-17 1.0
  outer loop
    vertex 9.999999999999995 44.99999999999999 82.5
    vertex 12.563586408600754 54.64910174431498 82.5
    vertex 9.999999999999995 64.99999999999999 82.5
  endloop
endfacet
facet normal -5.287437154777308e-17 -7.931155732165963e-17 1.0
  outer loop
    vertex 12.563586408600754 54.64910174431498 82.5
    vertex 9.999999999999995 44.99999999999999 82.5
    vertex 12.6863130794439 54.41869664088708 82.5
  endloop
endfacet
facet normal -5.287437154777308e-17 -7.931155732165963e-17 1.0
  outer loop
    vertex 12.6863130794439 54.41869664088708 82.5
    vertex 9.999999999999995 44.99999999999999 82.5
    vertex 17.49999999999999 47.99999999999999 82.5
  endloop
endfacet
facet normal -5.287437154777308e-17 -7.931155732165963e-17 1.0
  outer loop
    vertex 17.49999999999999 47.99999999999999 82.5
    vertex 9.999999999999995 44.99999999999999 82.5
    vertex 39.99999999999999 44.99999999999999 82.5
  endloop
endfacet
facet normal -5.287437154777308e-17 -7.931155732165963e-17 1.0
  outer loop
    vertex 9.999999999999995 64.99999999999999 82.5
    vertex 12.563586408600754 54.64910174431498 82.5
    vertex 12.504674776514836 54.903419983981024 82.5
  endloop
endfacet
facet normal -5.287437154777308e-17 -7.931155732165963e-17 1.0
  outer loop
    vertex 12.6863130794439 54.41869664088708 82.5
    vertex 17.49999999999999 47.99999999999999 82.5
    vertex 12.86449116924173 54.227906400733495 82.5
  endloop
endfacet
facet normal -5.287437154777308e-17 -7.931155732165963e-17 1.0
  outer loop
    vertex 12.86449116924173 54.227906400733495 82.5
    vertex 17.49999999999999 47.99999999999999 82.5
    vertex 13.085978135627736 54.08973306342493 82.5
  endloop
endfacet
facet normal -5.287437154777308e-17 -7.931155732165963e-17 1.0
  outer loop
    vertex 13.085978135627736 54.08973306342493 82.5
    vertex 17.49999999999999 47.99999999999999 82.5
    vertex 13.33568000786723 54.013592913556714 82.5
  endloop
endfacet
facet normal -5.287437154777308e-17 -7.931155732165963e-17 1.0
  outer loop
    vertex 13.33568000786723 54.013592913556714 82.5
    vertex 17.49999999999999 47.99999999999999 82.5
    vertex 13.596580016018947 54.004674776514825 82.5
  endloop
endfacet
facet normal -5.287437154777308e-17 -7.931155732165963e-17 1.0
  outer loop
    vertex 13.596580016018947 54.004674776514825 82.5
    vertex 17.49999999999999 47.99999999999999 82.5
    vertex 13.850898255684994 54.06358640860074 82.5
  endloop
endfacet
facet normal -5.287437154777308e-17 -7.931155732165963e-17 1.0
  outer loop
    vertex 13.850898255684994 54.06358640860074 82.5
    vertex 17.49999999999999 47.99999999999999 82.5
    vertex 14.081303359112894 54.186313079443885 82.5
  endloop
endfacet
facet normal -5.287437154777308e-17 -7.931155732165963e-17 1.0
  outer loop
    vertex 14.081303359112894 54.186313079443885 82.5
    vertex 17.49999999999999 47.99999999999999 82.5
    vertex 14.272093599266471 54.36449116924171 82.5
  endloop
endfacet
facet normal -5.287437154777308e-17 -7.931155732165963e-17 1.0
  outer loop
    vertex 14.272093599266471 54.36449116924171 82.5
    vertex 17.49999999999999 47.99999999999999 82.5
    vertex 14.41026693657504 54.58597813562771 82.5
  endloop
endfacet
facet normal -5.287437154777308e-17 -7.931155732165963e-17 1.0
  outer loop
    vertex 14.41026693657504 54.58597813562771 82.5
    vertex 17.49999999999999 47.99999999999999 82.5
    vertex 14.48640708644326 54.83568000786721 82.5
  endloop
endfacet
facet normal -5.287437154777308e-17 -7.931155732165963e-17 1.0
  outer loop
    vertex 14.48640708644326 54.83568000786721 82.5
    vertex 17.49999999999999 47.99999999999999 82.5
    vertex 14.495325223485153 55.09658001601893 82.5
  endloop
endfacet
facet normal -5.287437154777308e-17 -7.931155732165963e-17 1.0
  outer loop
    vertex 17.49999999999999 47.99999999999999 82.5
    vertex 39.99999999999999 44.99999999999999 82.5
    vertex 32.49999999999999 47.99999999999999 82.5
  endloop
endfacet
facet normal -5.287437154777308e-17 -7.931155732165963e-17 1.0
  outer loop
    vertex 32.49999999999999 47.99999999999999 82.5
    vertex 39.99999999999999 44.99999999999999 82.5
    vertex 35.59979322641372 54.56453729805021 82.5
  endloop
endfacet
facet normal -5.287437154777308e-17 -7.931155732165963e-17 1.0
  outer loop
    vertex 32.49999999999999 47.99999999999999 82.5
    vertex 35.59979322641372 54.56453729805021 82.5
    vertex 32.49999999999999 61.999999999999986 82.5
  endloop
endfacet
facet normal -5.287437154777308e-17 -7.931155732165963e-17 1.0
  outer loop
    vertex 32.49999999999999 61.999999999999986 82.5
    vertex 35.59979322641372 54.56453729805021 82.5
    vertex 35.517760987696256 54.8123659873355 82.5
  endloop
endfacet
facet normal -5.287437154777308e-17 -7.931155732165963e-17 1.0
  outer loop
    vertex 32.49999999999999 61.999999999999986 82.5
    vertex 35.517760987696256 54.8123659873355 82.5
    vertex 35.50266671444057 55.07298162450401 82.5
  endloop
endfacet
facet normal -5.287437154777308e-17 -7.931155732165963e-17 1.0
  outer loop
    vertex 35.59979322641372 54.56453729805021 82.5
    vertex 39.99999999999999 44.99999999999999 82.5
    vertex 35.74317306908906 54.34638467226666 82.5
  endloop
endfacet
facet normal -5.287437154777308e-17 -7.931155732165963e-17 1.0
  outer loop
    vertex 35.74317306908906 54.34638467226666 82.5
    vertex 39.99999999999999 44.99999999999999 82.5
    vertex 35.93812941639034 54.17277485091773 82.5
  endloop
endfacet
facet normal -5.287437154777308e-17 -7.931155732165963e-17 1.0
  outer loop
    vertex 35.93812941639034 54.17277485091773 82.5
    vertex 39.99999999999999 44.99999999999999 82.5
    vertex 36.171376315429576 54.055539056424564 82.5
  endloop
endfacet
facet normal -5.287437154777308e-17 -7.931155732165963e-17 1.0
  outer loop
    vertex 36.171376315429576 54.055539056424564 82.5
    vertex 39.99999999999999 44.99999999999999 82.5
    vertex 36.42701837549597 54.00266671444055 82.5
  endloop
endfacet
facet normal -5.287437154777308e-17 -7.931155732165963e-17 1.0
  outer loop
    vertex 36.42701837549597 54.00266671444055 82.5
    vertex 39.99999999999999 44.99999999999999 82.5
    vertex 36.68763401266447 54.017760987696235 82.5
  endloop
endfacet
facet normal -5.287437154777308e-17 -7.931155732165963e-17 1.0
  outer loop
    vertex 36.68763401266447 54.017760987696235 82.5
    vertex 39.99999999999999 44.99999999999999 82.5
    vertex 36.93546270194976 54.0997932264137 82.5
  endloop
endfacet
facet normal -5.287437154777308e-17 -7.931155732165963e-17 1.0
  outer loop
    vertex 36.93546270194976 54.0997932264137 82.5
    vertex 39.99999999999999 44.99999999999999 82.5
    vertex 37.15361532773331 54.243173069089046 82.5
  endloop
endfacet
facet normal -5.287437154777308e-17 -7.931155732165963e-17 1.0
  outer loop
    vertex 37.15361532773331 54.243173069089046 82.5
    vertex 39.99999999999999 44.99999999999999 82.5
    vertex 37.32722514908224 54.43812941639032 82.5
  endloop
endfacet
facet normal -5.287437154777308e-17 -7.931155732165963e-17 1.0
  outer loop
    vertex 37.32722514908224 54.43812941639032 82.5
    vertex 39.99999999999999 44.99999999999999 82.5
    vertex 37.44446094357541 54.671376315429555 82.5
  endloop
endfacet
facet normal -5.287437154777308e-17 -7.931155732165963e-17 1.0
  outer loop
    vertex 37.44446094357541 54.671376315429555 82.5
    vertex 39.99999999999999 44.99999999999999 82.5
    vertex 37.49733328555942 54.92701837549595 82.5
  endloop
endfacet
facet normal -5.287437154777308e-17 -7.931155732165963e-17 1.0
  outer loop
    vertex 9.999999999999995 64.99999999999999 82.5
    vertex 17.49999999999999 61.999999999999986 82.5
    vertex 39.99999999999999 64.99999999999999 82.5
  endloop
endfacet
facet normal -5.287437154777308e-17 -7.931155732165963e-17 1.0
  outer loop
    vertex 17.49999999999999 61.999999999999986 82.5
    vertex 9.999999999999995 64.99999999999999 82.5
    vertex 12.727906400733518 55.63550883075825 82.5
  endloop
endfacet
facet normal -5.287437154777308e-17 -7.931155732165963e-17 1.0
  outer loop
    vertex 12.727906400733518 55.63550883075825 82.5
    vertex 9.999999999999995 64.99999999999999 82.5
    vertex 12.58973306342495 55.41402186437224 82.5
  endloop
endfacet
facet normal -5.287437154777308e-17 -7.931155732165963e-17 1.0
  outer loop
    vertex 12.58973306342495 55.41402186437224 82.5
    vertex 9.999999999999995 64.99999999999999 82.5
    vertex 12.513592913556732 55.16431999213275 82.5
  endloop
endfacet
facet normal -5.287437154777308e-17 -7.931155732165963e-17 1.0
  outer loop
    vertex 12.513592913556732 55.16431999213275 82.5
    vertex 9.999999999999995 64.99999999999999 82.5
    vertex 12.504674776514836 54.903419983981024 82.5
  endloop
endfacet
facet normal -5.287437154777308e-17 -7.931155732165963e-17 1.0
  outer loop
    vertex 17.49999999999999 61.999999999999986 82.5
    vertex 12.727906400733518 55.63550883075825 82.5
    vertex 12.918696640887097 55.81368692055607 82.5
  endloop
endfacet
facet normal -5.287437154777308e-17 -7.931155732165963e-17 1.0
  outer loop
    vertex 17.49999999999999 61.999999999999986 82.5
    vertex 12.918696640887097 55.81368692055607 82.5
    vertex 13.149101744314997 55.936413591399216 82.5
  endloop
endfacet
facet normal -5.287437154777308e-17 -7.931155732165963e-17 1.0
  outer loop
    vertex 17.49999999999999 61.999999999999986 82.5
    vertex 13.149101744314997 55.936413591399216 82.5
    vertex 13.403419983981046 55.99532522348513 82.5
  endloop
endfacet
facet normal -5.287437154777308e-17 -7.931155732165963e-17 1.0
  outer loop
    vertex 17.49999999999999 61.999999999999986 82.5
    vertex 13.403419983981046 55.99532522348513 82.5
    vertex 13.664319992132759 55.98640708644324 82.5
  endloop
endfacet
facet normal -5.287437154777308e-17 -7.931155732165963e-17 1.0
  outer loop
    vertex 17.49999999999999 61.999999999999986 82.5
    vertex 13.664319992132759 55.98640708644324 82.5
    vertex 13.914021864372256 55.91026693657503 82.5
  endloop
endfacet
facet normal -5.287437154777308e-17 -7.931155732165963e-17 1.0
  outer loop
    vertex 17.49999999999999 61.999999999999986 82.5
    vertex 13.914021864372256 55.91026693657503 82.5
    vertex 14.135508830758262 55.77209359926646 82.5
  endloop
endfacet
facet normal -5.287437154777308e-17 -7.931155732165963e-17 1.0
  outer loop
    vertex 17.49999999999999 61.999999999999986 82.5
    vertex 14.135508830758262 55.77209359926646 82.5
    vertex 14.313686920556089 55.58130335911287 82.5
  endloop
endfacet
facet normal -5.287437154777308e-17 -7.931155732165963e-17 1.0
  outer loop
    vertex 17.49999999999999 61.999999999999986 82.5
    vertex 14.313686920556089 55.58130335911287 82.5
    vertex 14.436413591399237 55.350898255684974 82.5
  endloop
endfacet
facet normal -5.287437154777308e-17 -7.931155732165963e-17 1.0
  outer loop
    vertex 17.49999999999999 61.999999999999986 82.5
    vertex 14.436413591399237 55.350898255684974 82.5
    vertex 14.495325223485153 55.09658001601893 82.5
  endloop
endfacet
facet normal -5.287437154777308e-17 -7.931155732165963e-17 1.0
  outer loop
    vertex 17.49999999999999 61.999999999999986 82.5
    vertex 14.495325223485153 55.09658001601893 82.5
    vertex 17.49999999999999 47.99999999999999 82.5
  endloop
endfacet
facet normal -5.287437154777308e-17 -7.931155732165963e-17 1.0
  outer loop
    vertex 39.99999999999999 64.99999999999999 82.5
    vertex 17.49999999999999 61.999999999999986 82.5
    vertex 32.49999999999999 61.999999999999986 82.5
  endloop
endfacet
facet normal -5.287437154777308e-17 -7.931155732165963e-17 1.0
  outer loop
    vertex 39.99999999999999 64.99999999999999 82.5
    vertex 32.49999999999999 61.999999999999986 82.5
    vertex 35.55553905642458 55.328623684570395 82.5
  endloop
endfacet
facet normal -5.287437154777308e-17 -7.931155732165963e-17 1.0
  outer loop
    vertex 35.55553905642458 55.328623684570395 82.5
    vertex 32.49999999999999 61.999999999999986 82.5
    vertex 35.50266671444057 55.07298162450401 82.5
  endloop
endfacet
facet normal -5.287437154777308e-17 -7.931155732165963e-17 1.0
  outer loop
    vertex 39.99999999999999 64.99999999999999 82.5
    vertex 35.55553905642458 55.328623684570395 82.5
    vertex 35.672774850917754 55.56187058360964 82.5
  endloop
endfacet
facet normal -5.287437154777308e-17 -7.931155732165963e-17 1.0
  outer loop
    vertex 39.99999999999999 64.99999999999999 82.5
    vertex 35.672774850917754 55.56187058360964 82.5
    vertex 35.84638467226667 55.75682693091091 82.5
  endloop
endfacet
facet normal -5.287437154777308e-17 -7.931155732165963e-17 1.0
  outer loop
    vertex 39.99999999999999 64.99999999999999 82.5
    vertex 35.84638467226667 55.75682693091091 82.5
    vertex 36.064537298050226 55.900206773586255 82.5
  endloop
endfacet
facet normal -5.287437154777308e-17 -7.931155732165963e-17 1.0
  outer loop
    vertex 39.99999999999999 64.99999999999999 82.5
    vertex 36.064537298050226 55.900206773586255 82.5
    vertex 36.31236598733552 55.982239012303715 82.5
  endloop
endfacet
facet normal -5.287437154777308e-17 -7.931155732165963e-17 1.0
  outer loop
    vertex 39.99999999999999 64.99999999999999 82.5
    vertex 36.31236598733552 55.982239012303715 82.5
    vertex 36.572981624504024 55.99733328555941 82.5
  endloop
endfacet
facet normal -5.287437154777308e-17 -7.931155732165963e-17 1.0
  outer loop
    vertex 39.99999999999999 64.99999999999999 82.5
    vertex 36.572981624504024 55.99733328555941 82.5
    vertex 36.82862368457042 55.94446094357539 82.5
  endloop
endfacet
facet normal -5.287437154777308e-17 -7.931155732165963e-17 1.0
  outer loop
    vertex 39.99999999999999 64.99999999999999 82.5
    vertex 36.82862368457042 55.94446094357539 82.5
    vertex 37.061870583609654 55.827225149082224 82.5
  endloop
endfacet
facet normal -5.287437154777308e-17 -7.931155732165963e-17 1.0
  outer loop
    vertex 39.99999999999999 64.99999999999999 82.5
    vertex 37.061870583609654 55.827225149082224 82.5
    vertex 37.25682693091093 55.6536153277333 82.5
  endloop
endfacet
facet normal -5.287437154777308e-17 -7.931155732165963e-17 1.0
  outer loop
    vertex 39.99999999999999 64.99999999999999 82.5
    vertex 37.25682693091093 55.6536153277333 82.5
    vertex 37.40020677358627 55.435462701949746 82.5
  endloop
endfacet
facet normal -5.287437154777308e-17 -7.931155732165963e-17 1.0
  outer loop
    vertex 39.99999999999999 64.99999999999999 82.5
    vertex 37.40020677358627 55.435462701949746 82.5
    vertex 37.48223901230374 55.18763401266446 82.5
  endloop
endfacet
facet normal -5.287437154777308e-17 -7.931155732165963e-17 1.0
  outer loop
    vertex 39.99999999999999 64.99999999999999 82.5
    vertex 37.48223901230374 55.18763401266446 82.5
    vertex 37.49733328555942 54.92701837549595 82.5
  endloop
endfacet
facet normal -5.287437154777308e-17 -7.931155732165963e-17 1.0
  outer loop
    vertex 39.99999999999999 64.99999999999999 82.5
    vertex 37.49733328555942 54.92701837549595 82.5
    vertex 39.99999999999999 44.99999999999999 82.5
  endloop
endfacet
facet normal 1.0 -0.0 5.2874371547773093e-17
  outer loop
    vertex 40.0 45.0 2.5
    vertex 39.99999999999999 64.99999999999999 82.5
    vertex 39.99999999999999 44.99999999999999 82.5
  endloop
endfacet
facet normal 1.0 -0.0 5.2874371547773093e-17
  outer loop
    vertex 39.99999999999999 64.99999999999999 82.5
    vertex 40.0 45.0 2.5
    vertex 40.0 65.0 2.5
  endloop
endfacet
facet normal 0.0 1.0 7.931155732165963e-17
  outer loop
    vertex 9.999999999999995 64.99999999999999 82.5
    vertex 40.0 65.0 2.5
    vertex 9.999999999999998 65.0 2.5
  endloop
endfacet
facet normal 0.0 1.0 7.931155732165963e-17
  outer loop
    vertex 40.0 65.0 2.5
    vertex 9.999999999999995 64.99999999999999 82.5
    vertex 39.99999999999999 64.99999999999999 82.5
  endloop
endfacet
facet normal -1.0 8.387097499715867e-33 -5.2874371547773093e-17
  outer loop
    vertex 9.999999999999995 64.99999999999999 82.5
    vertex 9.999999999999998 45.0 2.499999999999997
    vertex 9.999999999999995 44.99999999999999 82.5
  endloop
endfacet
facet normal -1.0 8.387097499715867e-33 -5.2874371547773093e-17
  outer loop
    vertex 9.999999999999998 45.0 2.499999999999997
    vertex 9.999999999999995 64.99999999999999 82.5
    vertex 9.999999999999998 65.0 2.5
  endloop
endfacet
facet normal 8.387097499715867e-33 -1.0 -7.931155732165963e-17
  outer loop
    vertex 40.0 45.0 2.5
    vertex 9.999999999999995 44.99999999999999 82.5
    vertex 9.999999999999998 45.0 2.499999999999997
  endloop
endfacet
facet normal 8.387097499715867e-33 -1.0 -7.931155732165963e-17
  outer loop
    vertex 9.999999999999995 44.99999999999999 82.5
    vertex 40.0 45.0 2.5
    vertex 39.99999999999999 44.99999999999999 82.5
  endloop
endfacet
facet normal -3.7275988887626074e-33 1.0 7.931155732165963e-17
  outer loop
    vertex 17.49999999999999 47.99999999999999 82.5
    vertex 32.5 48.0 2.4999999999999956
    vertex 17.499999999999996 48.0 2.4999999999999947
  endloop
endfacet
facet normal -3.7275988887626074e-33 1.0 7.931155732165963e-17
  outer loop
    vertex 32.5 48.0 2.4999999999999956
    vertex 17.49999999999999 47.99999999999999 82.5
    vertex 32.49999999999999 47.99999999999999 82.5
  endloop
endfacet
facet normal 1.0 -2.662570634830433e-33 5.287437154777308e-17
  outer loop
    vertex 17.499999999999996 48.0 2.4999999999999947
    vertex 17.49999999999999 61.999999999999986 82.5
    vertex 17.49999999999999 47.99999999999999 82.5
  endloop
endfacet
facet normal 1.0 -2.662570634830433e-33 5.287437154777308e-17
  outer loop
    vertex 17.49999999999999 61.999999999999986 82.5
    vertex 17.499999999999996 48.0 2.4999999999999947
    vertex 17.499999999999996 62.0 2.4999999999999956
  endloop
endfacet
facet normal 0.0 -1.0 -7.931155732165963e-17
  outer loop
    vertex 32.49999999999999 61.999999999999986 82.5
    vertex 17.499999999999996 62.0 2.4999999999999956
    vertex 32.5 62.0 2.4999999999999956
  endloop
endfacet
facet normal 0.0 -1.0 -7.931155732165963e-17
  outer loop
    vertex 17.499999999999996 62.0 2.4999999999999956
    vertex 32.49999999999999 61.999999999999986 82.5
    vertex 17.49999999999999 61.999999999999986 82.5
  endloop
endfacet
facet normal -1.0 -0.0 -5.287437154777308e-17
  outer loop
    vertex 32.49999999999999 61.999999999999986 82.5
    vertex 32.5 48.0 2.4999999999999956
    vertex 32.49999999999999 47.99999999999999 82.5
  endloop
endfacet
facet normal -1.0 -0.0 -5.287437154777308e-17
  outer loop
    vertex 32.5 48.0 2.4999999999999956
    vertex 32.49999999999999 61.999999999999986 82.5
    vertex 32.5 62.0 2.4999999999999956
  endloop
endfacet
facet normal 0.0 0.0 1.0
  outer loop
    vertex 35.517760987696256 54.8123659873355 76.5
    vertex 35.55553905642458 55.328623684570395 76.5
    vertex 35.50266671444057 55.07298162450401 76.5
  endloop
endfacet
facet normal 0.0 0.0 1.0
  outer loop
    vertex 35.55553905642458 55.328623684570395 76.5
    vertex 35.517760987696256 54.8123659873355 76.5
    vertex 35.59979322641372 54.56453729805021 76.5
  endloop
endfacet
facet normal 0.0 0.0 1.0
  outer loop
    vertex 35.55553905642458 55.328623684570395 76.5
    vertex 35.59979322641372 54.56453729805021 76.5
    vertex 35.672774850917754 55.56187058360964 76.5
  endloop
endfacet
facet normal 0.0 0.0 1.0
  outer loop
    vertex 35.672774850917754 55.56187058360964 76.5
    vertex 35.59979322641372 54.56453729805021 76.5
    vertex 35.74317306908906 54.34638467226666 76.5
  endloop
endfacet
facet normal 0.0 0.0 1.0
  outer loop
    vertex 35.672774850917754 55.56187058360964 76.5
    vertex 35.74317306908906 54.34638467226666 76.5
    vertex 35.84638467226667 55.75682693091091 76.5
  endloop
endfacet
facet normal 0.0 0.0 1.0
  outer loop
    vertex 35.84638467226667 55.75682693091091 76.5
    vertex 35.74317306908906 54.34638467226666 76.5
    vertex 35.93812941639034 54.17277485091773 76.5
  endloop
endfacet
facet normal 0.0 0.0 1.0
  outer loop
    vertex 35.84638467226667 55.75682693091091 76.5
    vertex 35.93812941639034 54.17277485091773 76.5
    vertex 36.064537298050226 55.900206773586255 76.5
  endloop
endfacet
facet normal 0.0 0.0 1.0
  outer loop
    vertex 36.064537298050226 55.900206773586255 76.5
    vertex 35.93812941639034 54.17277485091773 76.5
    vertex 36.171376315429576 54.055539056424564 76.5
  endloop
endfacet
facet normal 0.0 0.0 1.0
  outer loop
    vertex 36.064537298050226 55.900206773586255 76.5
    vertex 36.171376315429576 54.055539056424564 76.5
    vertex 36.31236598733552 55.982239012303715 76.5
  endloop
endfacet
facet normal 0.0 0.0 1.0
  outer loop
    vertex 36.31236598733552 55.982239012303715 76.5
    vertex 36.171376315429576 54.055539056424564 76.5
    vertex 36.42701837549597 54.00266671444055 76.5
  endloop
endfacet
facet normal 0.0 0.0 1.0
  outer loop
    vertex 36.31236598733552 55.982239012303715 76.5
    vertex 36.42701837549597 54.00266671444055 76.5
    vertex 36.572981624504024 55.99733328555941 76.5
  endloop
endfacet
facet normal 0.0 0.0 1.0
  outer loop
    vertex 36.572981624504024 55.99733328555941 76.5
    vertex 36.42701837549597 54.00266671444055 76.5
    vertex 36.68763401266447 54.017760987696235 76.5
  endloop
endfacet
facet normal 0.0 0.0 1.0
  outer loop
    vertex 36.572981624504024 55.99733328555941 76.5
    vertex 36.68763401266447 54.017760987696235 76.5
    vertex 36.82862368457042 55.94446094357539 76.5
  endloop
endfacet
facet normal 0.0 0.0 1.0
  outer loop
    vertex 36.82862368457042 55.94446094357539 76.5
    vertex 36.68763401266447 54.017760987696235 76.5
    vertex 36.93546270194976 54.0997932264137 76.5
  endloop
endfacet
facet normal 0.0 0.0 1.0
  outer loop
    vertex 36.82862368457042 55.94446094357539 76.5
    vertex 36.93546270194976 54.0997932264137 76.5
    vertex 37.061870583609654 55.827225149082224 76.5
  endloop
endfacet
facet normal 0.0 0.0 1.0
  outer loop
    vertex 37.061870583609654 55.827225149082224 76.5
    vertex 36.93546270194976 54.0997932264137 76.5
    vertex 37.15361532773331 54.243173069089046 76.5
  endloop
endfacet
facet normal 0.0 0.0 1.0
  outer loop
    vertex 37.061870583609654 55.827225149082224 76.5
    vertex 37.15361532773331 54.243173069089046 76.5
    vertex 37.25682693091093 55.6536153277333 76.5
  endloop
endfacet
facet normal 0.0 0.0 1.0
  outer loop
    vertex 37.25682693091093 55.6536153277333 76.5
    vertex 37.15361532773331 54.243173069089046 76.5
    vertex 37.32722514908224 54.43812941639032 76.5
  endloop
endfacet
facet normal 0.0 0.0 1.0
  outer loop
    vertex 37.25682693091093 55.6536153277333 76.5
    vertex 37.32722514908224 54.43812941639032 76.5
    vertex 37.40020677358627 55.435462701949746 76.5
  endloop
endfacet
facet normal 0.0 0.0 1.0
  outer loop
    vertex 37.40020677358627 55.435462701949746 76.5
    vertex 37.32722514908224 54.43812941639032 76.5
    vertex 37.44446094357541 54.671376315429555 76.5
  endloop
endfacet
facet normal 0.0 0.0 1.0
  outer loop
    vertex 37.40020677358627 55.435462701949746 76.5
    vertex 37.44446094357541 54.671376315429555 76.5
    vertex 37.48223901230374 55.18763401266446 76.5
  endloop
endfacet
facet normal 0.0 0.0 1.0
  outer loop
    vertex 37.48223901230374 55.18763401266446 76.5
    vertex 37.44446094357541 54.671376315429555 76.5
    vertex 37.49733328555942 54.92701837549595 76.5
  endloop
endfacet
facet normal -0.7468092954577494 0.6650382516952691 -0.0
  outer loop
    vertex 37.32722514908224 54.43812941639032 82.5
    vertex 37.15361532773331 54.243173069089046 76.5
    vertex 37.15361532773331 54.243173069089046 82.5
  endloop
endfacet
facet normal -0.7468092954577494 0.6650382516952691 -0.0
  outer loop
    vertex 37.15361532773331 54.243173069089046 76.5
    vertex 37.32722514908224 54.43812941639032 82.5
    vertex 37.32722514908224 54.43812941639032 76.5
  endloop
endfacet
facet normal -0.8934869510557999 0.44908915405853495 -0.0
  outer loop
    vertex 37.44446094357541 54.671376315429555 82.5
    vertex 37.32722514908224 54.43812941639032 76.5
    vertex 37.32722514908224 54.43812941639032 82.5
  endloop
endfacet
facet normal -0.8934869510557999 0.44908915405853495 -0.0
  outer loop
    vertex 37.32722514908224 54.43812941639032 76.5
    vertex 37.44446094357541 54.671376315429555 82.5
    vertex 37.44446094357541 54.671376315429555 76.5
  endloop
endfacet
facet normal -0.9792749474964024 0.2025353727276258 -0.0
  outer loop
    vertex 37.49733328555942 54.92701837549595 82.5
    vertex 37.44446094357541 54.671376315429555 76.5
    vertex 37.44446094357541 54.671376315429555 82.5
  endloop
endfacet
facet normal -0.9792749474964024 0.2025353727276258 -0.0
  outer loop
    vertex 37.44446094357541 54.671376315429555 76.5
    vertex 37.49733328555942 54.92701837549595 82.5
    vertex 37.49733328555942 54.92701837549595 76.5
  endloop
endfacet
facet normal -0.9983269745934926 -0.05782085954916208 -0.0
  outer loop
    vertex 37.48223901230374 55.18763401266446 82.5
    vertex 37.49733328555942 54.92701837549595 76.5
    vertex 37.49733328555942 54.92701837549595 82.5
  endloop
endfacet
facet normal -0.9983269745934926 -0.05782085954916208 -0.0
  outer loop
    vertex 37.49733328555942 54.92701837549595 76.5
    vertex 37.48223901230374 55.18763401266446 82.5
    vertex 37.48223901230374 55.18763401266446 76.5
  endloop
endfacet
facet normal -0.9493446681853668 -0.31423669580113645 -0.0
  outer loop
    vertex 37.40020677358627 55.435462701949746 82.5
    vertex 37.48223901230374 55.18763401266446 76.5
    vertex 37.48223901230374 55.18763401266446 82.5
  endloop
endfacet
facet normal -0.9493446681853668 -0.31423669580113645 -0.0
  outer loop
    vertex 37.48223901230374 55.18763401266446 76.5
    vertex 37.40020677358627 55.435462701949746 82.5
    vertex 37.40020677358627 55.435462701949746 76.5
  endloop
endfacet
facet normal -0.8356660915066463 -0.5492378205349716 -0.0
  outer loop
    vertex 37.25682693091093 55.6536153277333 82.5
    vertex 37.40020677358627 55.435462701949746 76.5
    vertex 37.40020677358627 55.435462701949746 82.5
  endloop
endfacet
facet normal -0.8356660915066463 -0.5492378205349716 -0.0
  outer loop
    vertex 37.40020677358627 55.435462701949746 76.5
    vertex 37.25682693091093 55.6536153277333 82.5
    vertex 37.25682693091093 55.6536153277333 76.5
  endloop
endfacet
facet normal -0.6650382516952691 -0.7468092954577494 -0.0
  outer loop
    vertex 37.25682693091093 55.6536153277333 82.5
    vertex 37.061870583609654 55.827225149082224 76.5
    vertex 37.25682693091093 55.6536153277333 76.5
  endloop
endfacet
facet normal -0.6650382516952691 -0.7468092954577494 -0.0
  outer loop
    vertex 37.061870583609654 55.827225149082224 76.5
    vertex 37.25682693091093 55.6536153277333 82.5
    vertex 37.061870583609654 55.827225149082224 82.5
  endloop
endfacet
facet normal -0.44908915405853495 -0.8934869510557999 -0.0
  outer loop
    vertex 37.061870583609654 55.827225149082224 82.5
    vertex 36.82862368457042 55.94446094357539 76.5
    vertex 37.061870583609654 55.827225149082224 76.5
  endloop
endfacet
facet normal -0.44908915405853495 -0.8934869510557999 -0.0
  outer loop
    vertex 36.82862368457042 55.94446094357539 76.5
    vertex 37.061870583609654 55.827225149082224 82.5
    vertex 36.82862368457042 55.94446094357539 82.5
  endloop
endfacet
facet normal -0.2025353727276258 -0.9792749474964024 -0.0
  outer loop
    vertex 36.82862368457042 55.94446094357539 82.5
    vertex 36.572981624504024 55.99733328555941 76.5
    vertex 36.82862368457042 55.94446094357539 76.5
  endloop
endfacet
facet normal -0.2025353727276258 -0.9792749474964024 -0.0
  outer loop
    vertex 36.572981624504024 55.99733328555941 76.5
    vertex 36.82862368457042 55.94446094357539 82.5
    vertex 36.572981624504024 55.99733328555941 82.5
  endloop
endfacet
facet normal 0.057820859549163335 -0.9983269745934926 -0.0
  outer loop
    vertex 36.572981624504024 55.99733328555941 82.5
    vertex 36.31236598733552 55.982239012303715 76.5
    vertex 36.572981624504024 55.99733328555941 76.5
  endloop
endfacet
facet normal 0.057820859549163335 -0.9983269745934926 -0.0
  outer loop
    vertex 36.31236598733552 55.982239012303715 76.5
    vertex 36.572981624504024 55.99733328555941 82.5
    vertex 36.31236598733552 55.982239012303715 82.5
  endloop
endfacet
facet normal 0.31423669580113 -0.9493446681853689 -0.0
  outer loop
    vertex 36.31236598733552 55.982239012303715 82.5
    vertex 36.064537298050226 55.900206773586255 76.5
    vertex 36.31236598733552 55.982239012303715 76.5
  endloop
endfacet
facet normal 0.31423669580113 -0.9493446681853689 -0.0
  outer loop
    vertex 36.064537298050226 55.900206773586255 76.5
    vertex 36.31236598733552 55.982239012303715 82.5
    vertex 36.064537298050226 55.900206773586255 82.5
  endloop
endfacet
facet normal 0.5492378205349716 -0.8356660915066463 -0.0
  outer loop
    vertex 36.064537298050226 55.900206773586255 82.5
    vertex 35.84638467226667 55.75682693091091 76.5
    vertex 36.064537298050226 55.900206773586255 76.5
  endloop
endfacet
facet normal 0.5492378205349716 -0.8356660915066463 -0.0
  outer loop
    vertex 35.84638467226667 55.75682693091091 76.5
    vertex 36.064537298050226 55.900206773586255 82.5
    vertex 35.84638467226667 55.75682693091091 82.5
  endloop
endfacet
facet normal 0.7468092954577494 -0.6650382516952691 -0.0
  outer loop
    vertex 35.84638467226667 55.75682693091091 76.5
    vertex 35.672774850917754 55.56187058360964 82.5
    vertex 35.672774850917754 55.56187058360964 76.5
  endloop
endfacet
facet normal 0.7468092954577494 -0.6650382516952691 -0.0
  outer loop
    vertex 35.672774850917754 55.56187058360964 82.5
    vertex 35.84638467226667 55.75682693091091 76.5
    vertex 35.84638467226667 55.75682693091091 82.5
  endloop
endfacet
facet normal 0.8934869510557999 -0.44908915405853495 -0.0
  outer loop
    vertex 35.672774850917754 55.56187058360964 76.5
    vertex 35.55553905642458 55.328623684570395 82.5
    vertex 35.55553905642458 55.328623684570395 76.5
  endloop
endfacet
facet normal 0.8934869510557999 -0.44908915405853495 -0.0
  outer loop
    vertex 35.55553905642458 55.328623684570395 82.5
    vertex 35.672774850917754 55.56187058360964 76.5
    vertex 35.672774850917754 55.56187058360964 82.5
  endloop
endfacet
facet normal 0.9792749474964068 -0.2025353727276051 -0.0
  outer loop
    vertex 35.55553905642458 55.328623684570395 76.5
    vertex 35.50266671444057 55.07298162450401 82.5
    vertex 35.50266671444057 55.07298162450401 76.5
  endloop
endfacet
facet normal 0.9792749474964068 -0.2025353727276051 -0.0
  outer loop
    vertex 35.50266671444057 55.07298162450401 82.5
    vertex 35.55553905642458 55.328623684570395 76.5
    vertex 35.55553905642458 55.328623684570395 82.5
  endloop
endfacet
facet normal 0.9983269745934938 0.05782085954914054 0.0
  outer loop
    vertex 35.50266671444057 55.07298162450401 76.5
    vertex 35.517760987696256 54.8123659873355 82.5
    vertex 35.517760987696256 54.8123659873355 76.5
  endloop
endfacet
facet normal 0.9983269745934938 0.05782085954914054 0.0
  outer loop
    vertex 35.517760987696256 54.8123659873355 82.5
    vertex 35.50266671444057 55.07298162450401 76.5
    vertex 35.50266671444057 55.07298162450401 82.5
  endloop
endfacet
facet normal 0.9493446681853668 0.31423669580113645 0.0
  outer loop
    vertex 35.517760987696256 54.8123659873355 76.5
    vertex 35.59979322641372 54.56453729805021 82.5
    vertex 35.59979322641372 54.56453729805021 76.5
  endloop
endfacet
facet normal 0.9493446681853668 0.31423669580113645 0.0
  outer loop
    vertex 35.59979322641372 54.56453729805021 82.5
    vertex 35.517760987696256 54.8123659873355 76.5
    vertex 35.517760987696256 54.8123659873355 82.5
  endloop
endfacet
facet normal 0.8356660915066463 0.5492378205349716 0.0
  outer loop
    vertex 35.59979322641372 54.56453729805021 76.5
    vertex 35.74317306908906 54.34638467226666 82.5
    vertex 35.74317306908906 54.34638467226666 76.5
  endloop
endfacet
facet normal 0.8356660915066463 0.5492378205349716 0.0
  outer loop
    vertex 35.74317306908906 54.34638467226666 82.5
    vertex 35.59979322641372 54.56453729805021 76.5
    vertex 35.59979322641372 54.56453729805021 82.5
  endloop
endfacet
facet normal 0.6650382516952691 0.7468092954577494 0.0
  outer loop
    vertex 35.74317306908906 54.34638467226666 82.5
    vertex 35.93812941639034 54.17277485091773 76.5
    vertex 35.74317306908906 54.34638467226666 76.5
  endloop
endfacet
facet normal 0.6650382516952691 0.7468092954577494 0.0
  outer loop
    vertex 35.93812941639034 54.17277485091773 76.5
    vertex 35.74317306908906 54.34638467226666 82.5
    vertex 35.93812941639034 54.17277485091773 82.5
  endloop
endfacet
facet normal 0.44908915405853495 0.8934869510557999 0.0
  outer loop
    vertex 35.93812941639034 54.17277485091773 82.5
    vertex 36.171376315429576 54.055539056424564 76.5
    vertex 35.93812941639034 54.17277485091773 76.5
  endloop
endfacet
facet normal 0.44908915405853495 0.8934869510557999 0.0
  outer loop
    vertex 36.171376315429576 54.055539056424564 76.5
    vertex 35.93812941639034 54.17277485091773 82.5
    vertex 36.171376315429576 54.055539056424564 82.5
  endloop
endfacet
facet normal 0.2025353727276215 0.9792749474964033 0.0
  outer loop
    vertex 36.171376315429576 54.055539056424564 82.5
    vertex 36.42701837549597 54.00266671444055 76.5
    vertex 36.171376315429576 54.055539056424564 76.5
  endloop
endfacet
facet normal 0.2025353727276215 0.9792749474964033 0.0
  outer loop
    vertex 36.42701837549597 54.00266671444055 76.5
    vertex 36.171376315429576 54.055539056424564 82.5
    vertex 36.42701837549597 54.00266671444055 82.5
  endloop
endfacet
facet normal -0.057820859549164584 0.9983269745934926 -0.0
  outer loop
    vertex 36.42701837549597 54.00266671444055 82.5
    vertex 36.68763401266447 54.017760987696235 76.5
    vertex 36.42701837549597 54.00266671444055 76.5
  endloop
endfacet
facet normal -0.057820859549164584 0.9983269745934926 -0.0
  outer loop
    vertex 36.68763401266447 54.017760987696235 76.5
    vertex 36.42701837549597 54.00266671444055 82.5
    vertex 36.68763401266447 54.017760987696235 82.5
  endloop
endfacet
facet normal -0.31423669580113 0.9493446681853689 -0.0
  outer loop
    vertex 36.68763401266447 54.017760987696235 82.5
    vertex 36.93546270194976 54.0997932264137 76.5
    vertex 36.68763401266447 54.017760987696235 76.5
  endloop
endfacet
facet normal -0.31423669580113 0.9493446681853689 -0.0
  outer loop
    vertex 36.93546270194976 54.0997932264137 76.5
    vertex 36.68763401266447 54.017760987696235 82.5
    vertex 36.93546270194976 54.0997932264137 82.5
  endloop
endfacet
facet normal -0.5492378205349716 0.8356660915066463 -0.0
  outer loop
    vertex 36.93546270194976 54.0997932264137 82.5
    vertex 37.15361532773331 54.243173069089046 76.5
    vertex 36.93546270194976 54.0997932264137 76.5
  endloop
endfacet
facet normal -0.5492378205349716 0.8356660915066463 -0.0
  outer loop
    vertex 37.15361532773331 54.243173069089046 76.5
    vertex 36.93546270194976 54.0997932264137 82.5
    vertex 37.15361532773331 54.243173069089046 82.5
  endloop
endfacet
facet normal 0.0 0.0 1.0
  outer loop
    vertex 12.563586408600754 54.64910174431498 76.5
    vertex 12.513592913556732 55.16431999213275 76.5
    vertex 12.504674776514836 54.903419983981024 76.5
  endloop
endfacet
facet normal 0.0 0.0 1.0
  outer loop
    vertex 12.513592913556732 55.16431999213275 76.5
    vertex 12.563586408600754 54.64910174431498 76.5
    vertex 12.58973306342495 55.41402186437224 76.5
  endloop
endfacet
facet normal 0.0 0.0 1.0
  outer loop
    vertex 12.58973306342495 55.41402186437224 76.5
    vertex 12.563586408600754 54.64910174431498 76.5
    vertex 12.6863130794439 54.41869664088708 76.5
  endloop
endfacet
facet normal 0.0 0.0 1.0
  outer loop
    vertex 12.58973306342495 55.41402186437224 76.5
    vertex 12.6863130794439 54.41869664088708 76.5
    vertex 12.727906400733518 55.63550883075825 76.5
  endloop
endfacet
facet normal 0.0 0.0 1.0
  outer loop
    vertex 12.727906400733518 55.63550883075825 76.5
    vertex 12.6863130794439 54.41869664088708 76.5
    vertex 12.86449116924173 54.227906400733495 76.5
  endloop
endfacet
facet normal 0.0 0.0 1.0
  outer loop
    vertex 12.727906400733518 55.63550883075825 76.5
    vertex 12.86449116924173 54.227906400733495 76.5
    vertex 12.918696640887097 55.81368692055607 76.5
  endloop
endfacet
facet normal 0.0 0.0 1.0
  outer loop
    vertex 12.918696640887097 55.81368692055607 76.5
    vertex 12.86449116924173 54.227906400733495 76.5
    vertex 13.085978135627736 54.08973306342493 76.5
  endloop
endfacet
facet normal 0.0 0.0 1.0
  outer loop
    vertex 12.918696640887097 55.81368692055607 76.5
    vertex 13.085978135627736 54.08973306342493 76.5
    vertex 13.149101744314997 55.936413591399216 76.5
  endloop
endfacet
facet normal 0.0 0.0 1.0
  outer loop
    vertex 13.149101744314997 55.936413591399216 76.5
    vertex 13.085978135627736 54.08973306342493 76.5
    vertex 13.33568000786723 54.013592913556714 76.5
  endloop
endfacet
facet normal 0.0 0.0 1.0
  outer loop
    vertex 13.149101744314997 55.936413591399216 76.5
    vertex 13.33568000786723 54.013592913556714 76.5
    vertex 13.403419983981046 55.99532522348513 76.5
  endloop
endfacet
facet normal 0.0 0.0 1.0
  outer loop
    vertex 13.403419983981046 55.99532522348513 76.5
    vertex 13.33568000786723 54.013592913556714 76.5
    vertex 13.596580016018947 54.004674776514825 76.5
  endloop
endfacet
facet normal 0.0 0.0 1.0
  outer loop
    vertex 13.403419983981046 55.99532522348513 76.5
    vertex 13.596580016018947 54.004674776514825 76.5
    vertex 13.664319992132759 55.98640708644324 76.5
  endloop
endfacet
facet normal 0.0 0.0 1.0
  outer loop
    vertex 13.664319992132759 55.98640708644324 76.5
    vertex 13.596580016018947 54.004674776514825 76.5
    vertex 13.850898255684994 54.06358640860074 76.5
  endloop
endfacet
facet normal 0.0 0.0 1.0
  outer loop
    vertex 13.664319992132759 55.98640708644324 76.5
    vertex 13.850898255684994 54.06358640860074 76.5
    vertex 13.914021864372256 55.91026693657503 76.5
  endloop
endfacet
facet normal 0.0 0.0 1.0
  outer loop
    vertex 13.914021864372256 55.91026693657503 76.5
    vertex 13.850898255684994 54.06358640860074 76.5
    vertex 14.081303359112894 54.186313079443885 76.5
  endloop
endfacet
facet normal 0.0 0.0 1.0
  outer loop
    vertex 13.914021864372256 55.91026693657503 76.5
    vertex 14.081303359112894 54.186313079443885 76.5
    vertex 14.135508830758262 55.77209359926646 76.5
  endloop
endfacet
facet normal 0.0 0.0 1.0
  outer loop
    vertex 14.135508830758262 55.77209359926646 76.5
    vertex 14.081303359112894 54.186313079443885 76.5
    vertex 14.272093599266471 54.36449116924171 76.5
  endloop
endfacet
facet normal 0.0 0.0 1.0
  outer loop
    vertex 14.135508830758262 55.77209359926646 76.5
    vertex 14.272093599266471 54.36449116924171 76.5
    vertex 14.313686920556089 55.58130335911287 76.5
  endloop
endfacet
facet normal 0.0 0.0 1.0
  outer loop
    vertex 14.313686920556089 55.58130335911287 76.5
    vertex 14.272093599266471 54.36449116924171 76.5
    vertex 14.41026693657504 54.58597813562771 76.5
  endloop
endfacet
facet normal 0.0 0.0 1.0
  outer loop
    vertex 14.313686920556089 55.58130335911287 76.5
    vertex 14.41026693657504 54.58597813562771 76.5
    vertex 14.436413591399237 55.350898255684974 76.5
  endloop
endfacet
facet normal 0.0 0.0 1.0
  outer loop
    vertex 14.436413591399237 55.350898255684974 76.5
    vertex 14.41026693657504 54.58597813562771 76.5
    vertex 14.48640708644326 54.83568000786721 76.5
  endloop
endfacet
facet normal 0.0 0.0 1.0
  outer loop
    vertex 14.436413591399237 55.350898255684974 76.5
    vertex 14.48640708644326 54.83568000786721 76.5
    vertex 14.495325223485153 55.09658001601893 76.5
  endloop
endfacet
facet normal 0.7308504021626887 0.6825376836912643 0.0
  outer loop
    vertex 12.6863130794439 54.41869664088708 76.5
    vertex 12.86449116924173 54.227906400733495 82.5
    vertex 12.86449116924173 54.227906400733495 76.5
  endloop
endfacet
facet normal 0.7308504021626887 0.6825376836912643 0.0
  outer loop
    vertex 12.86449116924173 54.227906400733495 82.5
    vertex 12.6863130794439 54.41869664088708 76.5
    vertex 12.6863130794439 54.41869664088708 82.5
  endloop
endfacet
facet normal 0.5292935270632257 0.8484387792934563 0.0
  outer loop
    vertex 12.86449116924173 54.227906400733495 82.5
    vertex 13.085978135627736 54.08973306342493 76.5
    vertex 12.86449116924173 54.227906400733495 76.5
  endloop
endfacet
facet normal 0.5292935270632257 0.8484387792934563 0.0
  outer loop
    vertex 13.085978135627736 54.08973306342493 76.5
    vertex 12.86449116924173 54.227906400733495 82.5
    vertex 13.085978135627736 54.08973306342493 82.5
  endloop
endfacet
facet normal 0.2916661727933327 0.956520174198166 0.0
  outer loop
    vertex 13.085978135627736 54.08973306342493 82.5
    vertex 13.33568000786723 54.013592913556714 76.5
    vertex 13.085978135627736 54.08973306342493 76.5
  endloop
endfacet
facet normal 0.2916661727933327 0.956520174198166 0.0
  outer loop
    vertex 13.33568000786723 54.013592913556714 76.5
    vertex 13.085978135627736 54.08973306342493 82.5
    vertex 13.33568000786723 54.013592913556714 82.5
  endloop
endfacet
facet normal 0.034162250848676926 0.9994162999556052 0.0
  outer loop
    vertex 13.33568000786723 54.013592913556714 82.5
    vertex 13.596580016018947 54.004674776514825 76.5
    vertex 13.33568000786723 54.013592913556714 76.5
  endloop
endfacet
facet normal 0.034162250848676926 0.9994162999556052 0.0
  outer loop
    vertex 13.596580016018947 54.004674776514825 76.5
    vertex 13.33568000786723 54.013592913556714 82.5
    vertex 13.596580016018947 54.004674776514825 82.5
  endloop
endfacet
facet normal -0.22566977203548902 0.9742038564845914 -0.0
  outer loop
    vertex 13.596580016018947 54.004674776514825 82.5
    vertex 13.850898255684994 54.06358640860074 76.5
    vertex 13.596580016018947 54.004674776514825 76.5
  endloop
endfacet
facet normal -0.22566977203548902 0.9742038564845914 -0.0
  outer loop
    vertex 13.850898255684994 54.06358640860074 76.5
    vertex 13.596580016018947 54.004674776514825 82.5
    vertex 13.850898255684994 54.06358640860074 82.5
  endloop
endfacet
facet normal -0.4701227728923532 0.8826010301421616 -0.0
  outer loop
    vertex 13.850898255684994 54.06358640860074 82.5
    vertex 14.081303359112894 54.186313079443885 76.5
    vertex 13.850898255684994 54.06358640860074 76.5
  endloop
endfacet
facet normal -0.4701227728923532 0.8826010301421616 -0.0
  outer loop
    vertex 14.081303359112894 54.186313079443885 76.5
    vertex 13.850898255684994 54.06358640860074 82.5
    vertex 14.081303359112894 54.186313079443885 82.5
  endloop
endfacet
facet normal -0.6825376836912614 0.7308504021626914 -0.0
  outer loop
    vertex 14.081303359112894 54.186313079443885 82.5
    vertex 14.272093599266471 54.36449116924171 76.5
    vertex 14.081303359112894 54.186313079443885 76.5
  endloop
endfacet
facet normal -0.6825376836912614 0.7308504021626914 -0.0
  outer loop
    vertex 14.272093599266471 54.36449116924171 76.5
    vertex 14.081303359112894 54.186313079443885 82.5
    vertex 14.272093599266471 54.36449116924171 82.5
  endloop
endfacet
facet normal -0.8484387792934515 0.5292935270632335 -0.0
  outer loop
    vertex 14.41026693657504 54.58597813562771 82.5
    vertex 14.272093599266471 54.36449116924171 76.5
    vertex 14.272093599266471 54.36449116924171 82.5
  endloop
endfacet
facet normal -0.8484387792934515 0.5292935270632335 -0.0
  outer loop
    vertex 14.272093599266471 54.36449116924171 76.5
    vertex 14.41026693657504 54.58597813562771 82.5
    vertex 14.41026693657504 54.58597813562771 76.5
  endloop
endfacet
facet normal -0.956520174198166 0.2916661727933327 -0.0
  outer loop
    vertex 14.48640708644326 54.83568000786721 82.5
    vertex 14.41026693657504 54.58597813562771 76.5
    vertex 14.41026693657504 54.58597813562771 82.5
  endloop
endfacet
facet normal -0.956520174198166 0.2916661727933327 -0.0
  outer loop
    vertex 14.41026693657504 54.58597813562771 76.5
    vertex 14.48640708644326 54.83568000786721 82.5
    vertex 14.48640708644326 54.83568000786721 76.5
  endloop
endfacet
facet normal -0.9994162999556045 0.03416225084869814 -0.0
  outer loop
    vertex 14.495325223485153 55.09658001601893 82.5
    vertex 14.48640708644326 54.83568000786721 76.5
    vertex 14.48640708644326 54.83568000786721 82.5
  endloop
endfacet
facet normal -0.9994162999556045 0.03416225084869814 -0.0
  outer loop
    vertex 14.48640708644326 54.83568000786721 76.5
    vertex 14.495325223485153 55.09658001601893 82.5
    vertex 14.495325223485153 55.09658001601893 76.5
  endloop
endfacet
facet normal -0.9742038564845938 -0.22566977203547878 -0.0
  outer loop
    vertex 14.436413591399237 55.350898255684974 82.5
    vertex 14.495325223485153 55.09658001601893 76.5
    vertex 14.495325223485153 55.09658001601893 82.5
  endloop
endfacet
facet normal -0.9742038564845938 -0.22566977203547878 -0.0
  outer loop
    vertex 14.495325223485153 55.09658001601893 76.5
    vertex 14.436413591399237 55.350898255684974 82.5
    vertex 14.436413591399237 55.350898255684974 76.5
  endloop
endfacet
facet normal -0.8826010301421434 -0.4701227728923874 -0.0
  outer loop
    vertex 14.313686920556089 55.58130335911287 82.5
    vertex 14.436413591399237 55.350898255684974 76.5
    vertex 14.436413591399237 55.350898255684974 82.5
  endloop
endfacet
facet normal -0.8826010301421434 -0.4701227728923874 -0.0
  outer loop
    vertex 14.436413591399237 55.350898255684974 76.5
    vertex 14.313686920556089 55.58130335911287 82.5
    vertex 14.313686920556089 55.58130335911287 76.5
  endloop
endfacet
facet normal -0.7308504021627115 -0.6825376836912398 -0.0
  outer loop
    vertex 14.135508830758262 55.77209359926646 82.5
    vertex 14.313686920556089 55.58130335911287 76.5
    vertex 14.313686920556089 55.58130335911287 82.5
  endloop
endfacet
facet normal -0.7308504021627115 -0.6825376836912398 -0.0
  outer loop
    vertex 14.313686920556089 55.58130335911287 76.5
    vertex 14.135508830758262 55.77209359926646 82.5
    vertex 14.135508830758262 55.77209359926646 76.5
  endloop
endfacet
facet normal -0.5292935270632257 -0.8484387792934563 -0.0
  outer loop
    vertex 14.135508830758262 55.77209359926646 82.5
    vertex 13.914021864372256 55.91026693657503 76.5
    vertex 14.135508830758262 55.77209359926646 76.5
  endloop
endfacet
facet normal -0.5292935270632257 -0.8484387792934563 -0.0
  outer loop
    vertex 13.914021864372256 55.91026693657503 76.5
    vertex 14.135508830758262 55.77209359926646 82.5
    vertex 13.914021864372256 55.91026693657503 82.5
  endloop
endfacet
facet normal -0.2916661727933327 -0.956520174198166 -0.0
  outer loop
    vertex 13.914021864372256 55.91026693657503 82.5
    vertex 13.664319992132759 55.98640708644324 76.5
    vertex 13.914021864372256 55.91026693657503 76.5
  endloop
endfacet
facet normal -0.2916661727933327 -0.956520174198166 -0.0
  outer loop
    vertex 13.664319992132759 55.98640708644324 76.5
    vertex 13.914021864372256 55.91026693657503 82.5
    vertex 13.664319992132759 55.98640708644324 82.5
  endloop
endfacet
facet normal -0.0341622508486773 -0.9994162999556052 -0.0
  outer loop
    vertex 13.664319992132759 55.98640708644324 82.5
    vertex 13.403419983981046 55.99532522348513 76.5
    vertex 13.664319992132759 55.98640708644324 76.5
  endloop
endfacet
facet normal -0.0341622508486773 -0.9994162999556052 -0.0
  outer loop
    vertex 13.403419983981046 55.99532522348513 76.5
    vertex 13.664319992132759 55.98640708644324 82.5
    vertex 13.403419983981046 55.99532522348513 82.5
  endloop
endfacet
facet normal 0.22566977203548666 -0.974203856484592 -0.0
  outer loop
    vertex 13.403419983981046 55.99532522348513 82.5
    vertex 13.149101744314997 55.936413591399216 76.5
    vertex 13.403419983981046 55.99532522348513 76.5
  endloop
endfacet
facet normal 0.22566977203548666 -0.974203856484592 -0.0
  outer loop
    vertex 13.149101744314997 55.936413591399216 76.5
    vertex 13.403419983981046 55.99532522348513 82.5
    vertex 13.149101744314997 55.936413591399216 82.5
  endloop
endfacet
facet normal 0.4701227728923532 -0.8826010301421616 -0.0
  outer loop
    vertex 13.149101744314997 55.936413591399216 82.5
    vertex 12.918696640887097 55.81368692055607 76.5
    vertex 13.149101744314997 55.936413591399216 76.5
  endloop
endfacet
facet normal 0.4701227728923532 -0.8826010301421616 -0.0
  outer loop
    vertex 12.918696640887097 55.81368692055607 76.5
    vertex 13.149101744314997 55.936413591399216 82.5
    vertex 12.918696640887097 55.81368692055607 82.5
  endloop
endfacet
facet normal 0.6825376836912614 -0.7308504021626914 -0.0
  outer loop
    vertex 12.918696640887097 55.81368692055607 82.5
    vertex 12.727906400733518 55.63550883075825 76.5
    vertex 12.918696640887097 55.81368692055607 76.5
  endloop
endfacet
facet normal 0.6825376836912614 -0.7308504021626914 -0.0
  outer loop
    vertex 12.727906400733518 55.63550883075825 76.5
    vertex 12.918696640887097 55.81368692055607 82.5
    vertex 12.727906400733518 55.63550883075825 82.5
  endloop
endfacet
facet normal 0.8484387792934515 -0.5292935270632335 -0.0
  outer loop
    vertex 12.727906400733518 55.63550883075825 76.5
    vertex 12.58973306342495 55.41402186437224 82.5
    vertex 12.58973306342495 55.41402186437224 76.5
  endloop
endfacet
facet normal 0.8484387792934515 -0.5292935270632335 -0.0
  outer loop
    vertex 12.58973306342495 55.41402186437224 82.5
    vertex 12.727906400733518 55.63550883075825 76.5
    vertex 12.727906400733518 55.63550883075825 82.5
  endloop
endfacet
facet normal 0.9565201741981676 -0.29166617279332774 -0.0
  outer loop
    vertex 12.58973306342495 55.41402186437224 76.5
    vertex 12.513592913556732 55.16431999213275 82.5
    vertex 12.513592913556732 55.16431999213275 76.5
  endloop
endfacet
facet normal 0.9565201741981676 -0.29166617279332774 -0.0
  outer loop
    vertex 12.513592913556732 55.16431999213275 82.5
    vertex 12.58973306342495 55.41402186437224 76.5
    vertex 12.58973306342495 55.41402186437224 82.5
  endloop
endfacet
facet normal 0.9994162999556042 -0.03416225084870353 -0.0
  outer loop
    vertex 12.513592913556732 55.16431999213275 76.5
    vertex 12.504674776514836 54.903419983981024 82.5
    vertex 12.504674776514836 54.903419983981024 76.5
  endloop
endfacet
facet normal 0.9994162999556042 -0.03416225084870353 -0.0
  outer loop
    vertex 12.504674776514836 54.903419983981024 82.5
    vertex 12.513592913556732 55.16431999213275 76.5
    vertex 12.513592913556732 55.16431999213275 82.5
  endloop
endfacet
facet normal 0.9742038564845926 0.2256697720354839 0.0
  outer loop
    vertex 12.504674776514836 54.903419983981024 76.5
    vertex 12.563586408600754 54.64910174431498 82.5
    vertex 12.563586408600754 54.64910174431498 76.5
  endloop
endfacet
facet normal 0.9742038564845926 0.2256697720354839 0.0
  outer loop
    vertex 12.563586408600754 54.64910174431498 82.5
    vertex 12.504674776514836 54.903419983981024 76.5
    vertex 12.504674776514836 54.903419983981024 82.5
  endloop
endfacet
facet normal 0.8826010301421575 0.4701227728923611 0.0
  outer loop
    vertex 12.563586408600754 54.64910174431498 76.5
    vertex 12.6863130794439 54.41869664088708 82.5
    vertex 12.6863130794439 54.41869664088708 76.5
  endloop
endfacet
facet normal 0.8826010301421575 0.4701227728923611 0.0
  outer loop
    vertex 12.6863130794439 54.41869664088708 82.5
    vertex 12.563586408600754 54.64910174431498 76.5
    vertex 12.563586408600754 54.64910174431498 82.5
  endloop
endfacet
endsolid base
